/* XPM */ 
static const unsigned char * zora_xpm[] = {
"48 48 101 2",
"  	c None",
"! 	c black",
"# 	c #323232",
"$ 	c #3F3F3F",
"% 	c #252525",
"& 	c #292525",
"' 	c #232628",
"( 	c #5E2525",
") 	c #492525",
"* 	c #AE2425",
"+ 	c #F52424",
", 	c #EA2325",
"- 	c #612525",
". 	c #9D2425",
"0 	c #8D2425",
"1 	c #22282B",
"2 	c #892425",
"3 	c #502525",
"4 	c #692525",
"5 	c #592525",
"6 	c #E12424",
"7 	c #E52424",
"8 	c #F12425",
"9 	c #D12425",
": 	c #752525",
"; 	c #3D2525",
"< 	c #652525",
"= 	c #B72425",
"> 	c #ED2424",
"? 	c #352525",
"@ 	c #CD2425",
"A 	c #2D2525",
"B 	c #F22324",
"C 	c #BE2425",
"D 	c #C32425",
"E 	c #542525",
"F 	c #CA2425",
"G 	c #712525",
"H 	c #C52424",
"I 	c #B02425",
"J 	c #B92424",
"K 	c #7E2425",
"L 	c #392525",
"M 	c #DD2424",
"N 	c #A92425",
"O 	c #22292C",
"P 	c #D52424",
"Q 	c #242C2F",
"R 	c #E92424",
"S 	c #312525",
"T 	c #952425",
"U 	c #6D2525",
"V 	c #412525",
"W 	c #4D2525",
"X 	c #193440",
"Y 	c #184E65",
"Z 	c #1D4D62",
"[ 	c #232D31",
"] 	c #782425",
"^ 	c #1C2B31",
"_ 	c #0F4861",
"` 	c #0D4D69",
"a 	c #0D4B65",
"b 	c #0F5D7F",
"c 	c #116082",
"d 	c #992425",
"e 	c #115774",
"f 	c #0C4259",
"g 	c #0F5879",
"h 	c #117099",
"i 	c #147FA9",
"j 	c #17475C",
"k 	c #452525",
"l 	c #812425",
"m 	c #183845",
"n 	c #0D506C",
"o 	c #0A3849",
"p 	c #126589",
"q 	c #13759D",
"r 	c #912425",
"s 	c #A42424",
"t 	c #183744",
"u 	c #126D96",
"v 	c #092D3A",
"w 	c #1D2F36",
"x 	c #0F658D",
"y 	c #0B3D51",
"z 	c #0F5876",
"{ 	c #1279A6",
"| 	c #A22425",
"} 	c #13485F",
"~ 	c #0C475F",
" !	c #126C91",
"!!	c #18627D",
"#!	c #862425",
"$!	c #1A2B31",
"%!	c #152C35",
"&!	c #173A49",
"'!	c #1E3A45",
"(!	c #D92425",
")!	c #F42324",
"                                                                                                ",
"                                                                                                ",
"                                                                                                ",
"                                                                                                ",
"                                                                                                ",
"                                                                                                ",
"# # # # # # # # # # # # # # # # # # # # # # # # # # # # # # # # # # # # # # # # # # # # # # # $ ",
"% % % % % % % % % % % % % % % % % % % % % % % % % % % % % % % % % % % % % % % % % % % % % % % # ",
"% % % % % % % % % % % % % % % % % % % % % % % % % % % % % % % % % % % % % % % % % % % % % % % # ",
"% % % % % % % & ' & ' & ' & % & ( ) % % % % % % % % % % % % % ' & ' & ' & ' & ' & ' & ' & % % # ",
"% % & % % % % % ' & & ' & & & * + , - % % % % % % % % % % % % % & & ' & & & ' & & & ' & & ' & # ",
"' % ' % % % % & ' & ' & ' & . + + + 0 % % % % % % % % % % % & 1 & ' & 1 & ' & 1 & ' & 1 & ' % # ",
"% & ' & % % % % % & 1 & % 2 + + + + 3 % % % % % % % % % % % % % & ' & ' & % & 4 ) ' & ' & ' & # ",
"' & % % ' & ' & ' % & ' 5 6 7 8 + 9 % % % % % % % % % % % % % & 1 & & ' & ' : 8 - ' & ' & ' % # ",
"% % ' & ' & ' & 1 & & ; 6 9 < = + 2 % % % % % % % % % % % % % & % & ' & 1 ) > 8 ? % & ' & ' & # ",
"' & ' % & ' & % & ' ? @ + 2 A 6 B ) % % % % % % % % % % % % ' & & 1 & & & C + 9 & 1 & ' & % % # ",
"% & & ' & ' & 1 & A D + 6 & E 8 F % % % % % % % % % % % % % % % ' & % ' G + H I & % & ' & ' & # ",
"' ' & ' & % & ' ? J + + 2 ' 4 , K % % % % % % % % % % % % % ' & ' & ' L 7 M G N & ' & ' & ' % # ",
"% & & ' & O & & I + + , ? & 2 8 L % % % % % % % % % % % % % % & ' & ' K H K P M ( 1 & ' & ' & # ",
"% ' % & % & Q 3 R + + N ' S P 9 & % % % % % % % % % % % & ' & ' & % & T U 1 V N A ' & 1 & % % # ",
"% % & & O & A M + + + W O W @ 2 % % % % % 1 X Y Z [ % % % % % % & : L 2 A ' S . ' & % % & ' & # ",
"& O & ' & % < + + + C & & ] 8 5 % % % % ^ _ ` a b c Q % % % ' & G 3 & ; & % % d & O & ' & ' % # ",
"% % % & % % U + + + T ' % E M ; % % % O e f f g h i j % % % % W J k ' & ' & 1 l % % & ' & ' & # ",
"% % % % % ' A F + + T ' & U D S % % % m c n o n p q c % % ' ? 9 r V & ' & % & < & O & ' & ' % # ",
"% % % % % % % A ( L ' & % d s % % % % t g u o v n i p % % A C s 4 O & ' & ' & S & ' & ' & ' & # ",
"% % % % % % % % % & ' % A 7 = % % % % w x i o y z { Y % % | P 0 & & W ? & & O & O & & ' & ' % # ",
"% % % % % % % % % % % % W + N ' % % % ' } h ~  ! !!!Q & l + F A ? I + 7 9 A O & % & ' & O & % # ",
"% % % % % & % % % % % % - + #!% % % % % 1 $!%!&!'!% % G 8 + < S F + R + I & & % & O & % % & % # ",
"% % % % % % % % & ' % % K + U % % % % % % % % % % % < 8 + T % d + d C + U % % & O & % O & % O # ",
"% % % % ' & % ' % % % % r + E % % % % % % % % % % E R + C A ; > (!; > + S & O % % & O & & & % # ",
"% % % % % % % % & ' & ' s + ) % % % % % % % % % k 6 + 9 ? % 2 + r U + F O & & ' & % & % O & ' # ",
"% % % % % % % % % % % S , )!k % % % % % % % % W P + > 3 % ' @ + 4 . + 2 ? d M W Q % % & % & % # ",
"% % % % % % % % % % % ; + + k % % % % % % % ; P + )!. & % A + + ) I + N 7 + K % % & % & ' & ' # ",
"% % % % % % % % % ' % L + + < % % % % % & < (!+ + s V % % ) + 8 ; 0 + + 8 : & O % & O & ' & % # ",
"% % % % % % % % ' & % S + + | ' % % % V = B + + J k % % % k + 8 L A 0 * 5 1 & % % & ' & % & ' # ",
"% % % % % % % % & % % & 6 + , 5 % ; r , + + + N 3 % % % % & 8 + W ' ' ' & & O & ' & Q % ' & & # ",
"% % % % % % % % % % % % 0 + + > 8 + + + )!R * k % % % % % % D + K ' & & % ' & % & O & % & % ' # ",
"% % & ' & ' & ' % % % ' S P + + + + + + + N ) % % % & ' & ' K + P ? & ' & O & ' & % ' & ' & % # ",
"% % & ' & ' & ' & & ' & ' k (!+ + + + M ] & ' & ' & ' % & ' ? 6 + (!r % & & % & O & O & % & O # ",
"& 1 & ' & ' % & 1 & & ' & ' ? 2 . #!< S & ' & ' & ' & ' & & 1 : + + s % % & ' & % & Q & ' & % # ",
"% % % & ' & O & % & ' & 1 & ' & ' & ' & ' & ' & ' & ' & ' & ' A d = ? Q & O & ' & O & % % & ' # ",
"' & ' & ' & & 1 & ' & % & ' & & ' & ' & ' & ' & 1 & ' & 1 & & ' & & % & % & O & % & % & ' & % # ",
"                                                                                                ",
"                                                                                                ",
"                                                                                                ",
"                                                                                                ",
"                                                                                                ",
"                                                                                                "};