<?xml version="1.0" encoding="UTF-8"?>
<svg version="1.1" viewBox="0 0 400 400" xmlns="http://www.w3.org/2000/svg">
<g fill-rule="evenodd">
<path d="m126.44 38.291c-0.53 0.099-1.61 0.608-2.4 1.13-0.79 0.521-2.214 1.221-3.163 1.555-4.089 1.438-10.697 7.817-20.13 19.432-0.8 0.985-2.668 3.052-4.15 4.592s-3.391 3.79-4.241 5c-0.851 1.21-2.584 3.588-3.85 5.284-1.267 1.697-3.996 5.387-6.065 8.2-2.069 2.814-4.859 6.29-6.2 7.725s-4.131 4.585-6.201 7-5.138 5.741-6.817 7.391c-1.68 1.65-4.357 4.755-5.948 6.9-1.592 2.144-3.834 4.634-4.983 5.531-2.38 1.86-4.247 3.389-7.291 5.969-1.168 0.99-2.716 2.16-3.439 2.6-1.732 1.054-2.192 2.815-1.54 5.89 0.639 3.01-0.485 4.839-6.813 11.089-1.213 1.199-2.656 2.833-3.206 3.632-3.3 4.793-3.6 5.373-3.603 6.967-3e-3 1.149-0.586 2.77-2 5.558-2.997 5.907-2.623 13.823 0.837 17.764 0.699 0.796 1.653 2.269 2.119 3.274 3.62 7.795 14.375 11.834 21.903 8.226 1.607-0.77 3.306-1.4 3.776-1.4 0.471 0 1.838-0.524 3.038-1.165 1.201-0.64 2.981-1.369 3.956-1.618 4.131-1.058 4.687-1.72 3.374-4.017-0.314-0.55-0.578-1.519-0.586-2.153s-0.392-1.764-0.853-2.511c-0.665-1.076-0.792-1.751-0.609-3.247 0.128-1.039 0.388-3.395 0.579-5.237 0.304-2.938 0.643-3.94 2.767-8.2 1.331-2.668 2.865-5.932 3.409-7.252 0.543-1.32 1.911-4.599 3.04-7.287s2.053-5.05 2.053-5.25c0-0.825 2.96-7.622 4.23-9.713 0.754-1.24 1.371-2.501 1.372-2.802 1e-3 -0.302 0.81-2.258 1.798-4.348s1.797-4.181 1.798-4.647 1.009-2.356 2.239-4.2c2.036-3.053 2.217-3.5 2.015-4.998-0.285-2.114 0.334-3.322 4.178-8.166 1.654-2.084 4.439-5.664 6.189-7.955 1.749-2.292 3.908-5.118 4.797-6.28 4.178-5.464 5.393-6.339 6.466-4.654 1.021 1.606 1.411 1.753 2.338 0.882 3.428-3.221 3.796 1.666 0.8 10.618-0.736 2.2-1.46 5.08-1.608 6.4-0.3 2.679-1.437 6.714-2.433 8.641-0.909 1.758-2.582 8.855-2.565 10.884l0.013 1.675 0.687-1.442c0.949-1.994 1.654-2.758 2.544-2.758 1.597 0 1.69 1.547 0.399 6.633-0.666 2.622-1.323 5.577-1.461 6.567-0.731 5.255-3.115 9.007-5.062 7.965-0.748-0.401-1.095-3.165-0.397-3.165 0.413 0 2.064-6.586 2.061-8.219l-3e-3 -1.181-0.639 1.2c-0.937 1.759-2.156 6.355-2.156 8.128 0 0.846-0.122 1.66-0.271 1.809-0.699 0.699-2.116 6.281-2.098 8.263 0.015 1.645 0.107 1.984 0.366 1.343 1.458-3.614 4.5-1.589 3.586 2.386-1.742 7.572-5.183 11.313-5.183 5.635 0-1.849-0.098-2.18-0.538-1.816-0.978 0.813-2.31 7.564-2.181 11.057l0.119 3.195 1.457-0.112c2.363-0.181 2.704 2.857 1.156 10.312-0.205 0.99-0.568 3.024-0.807 4.519-0.238 1.495-0.874 3.715-1.412 4.933-0.539 1.218-0.947 2.612-0.906 3.097 0.04 0.485-0.7 2.315-1.645 4.067-1.734 3.214-3.997 9.963-4.824 14.384-0.799 4.274-2.019 13.504-2.019 15.275 0 0.949-0.27 3.3-0.601 5.225-0.33 1.925-0.775 5.48-0.989 7.9-0.213 2.42-0.565 5.75-0.783 7.4-0.217 1.65-0.586 5.7-0.819 9-0.647 9.149-1.049 10.689-2.9 11.124-1.251 0.295-1.563 0.587-1.939 1.814-0.728 2.378-0.932 16.734-0.337 23.681 0.292 3.4 0.554 7.981 0.584 10.181 0.221 16.23 17.537 41.583 32.937 48.222 7.628 3.289 12.683 3.824 15.462 1.638 0.976-0.768 1.412-0.818 5.324-0.606 6.615 0.359 16.948-1.891 22.861-4.979 5.031-2.627 13.529-7.473 15.285-8.716 1.036-0.735 3.466-2.157 5.4-3.162 3.997-2.077 7.508-4.743 11.585-8.797 5.182-5.154 3.888-6.572-1.497-1.64-5.062 4.636-11.394 7.779-12.813 6.36-0.884-0.884 0.132-2.023 4.143-4.641 6.287-4.105 10.909-7.705 15.297-11.911 2.2-2.109 6.464-6.01 9.476-8.668 5.862-5.174 9.475-8.884 12.322-12.65 0.977-1.292 4.159-4.601 7.071-7.352 6.151-5.811 8.254-8.357 10.321-12.498 0.823-1.65 2.339-3.99 3.369-5.2 1.029-1.21 2.674-3.345 3.656-4.744 1.822-2.598 7.84-9.857 11.154-13.456 1.013-1.1 3.964-4.79 6.559-8.2s5.518-7.19 6.497-8.4c3.377-4.177 6.043-8.208 6.971-10.541 1.333-3.355 4.21-7.96 7.281-11.659 2.855-3.439 11.601-15.246 12.378-16.711 0.259-0.489 1.4-2.149 2.534-3.689s2.699-3.88 3.478-5.2 2.01-3.347 2.737-4.504c0.726-1.158 1.209-2.217 1.071-2.354-0.606-0.606-2.545 0.809-3.522 2.57-3.933 7.09-25.165 32.088-27.254 32.088-1.219 0-1.087-1.211 0.297-2.743 0.758-0.839 1.897-2.68 2.53-4.091 0.718-1.601 1.534-2.771 2.168-3.11 1.098-0.587 1.906-1.995 1.906-3.32 0-0.49 0.893-1.644 2.197-2.837 1.343-1.231 2.571-2.832 3.162-4.122 0.531-1.16 1.412-2.402 1.958-2.76 0.888-0.581 3.024-3.486 5.283-7.184 0.44-0.72 1.323-1.992 1.962-2.825 0.639-0.834 1.316-2.341 1.504-3.349 0.188-1.007 0.78-2.494 1.316-3.303 0.535-0.81 1.539-3.146 2.23-5.192 1.519-4.498 2.587-6.112 6.509-9.837 3.795-3.605 6.827-8.127 5.449-8.127-2.119 0-10.774 9.135-18.381 19.4-2.283 3.08-5.464 7.265-7.07 9.3-7.389 9.365-9.358 11.814-13.109 16.3-2.208 2.64-4.728 5.7-5.599 6.8-0.872 1.1-2.43 2.99-3.461 4.2-1.032 1.21-4.148 4.943-6.926 8.296-2.777 3.353-7.002 8.123-9.388 10.6s-5.011 5.314-5.833 6.304-2.537 2.88-3.811 4.2c-3.256 3.373-10.616 11.662-16.872 19-6.841 8.025-12.939 14.495-23.779 25.227-12.126 12.007-13.825 13.416-15.715 13.038-0.944-0.189-1.589 0.143-3.879 1.993-1.511 1.221-3.917 2.755-5.347 3.408s-4.85 2.675-7.6 4.493c-14.063 9.299-24.232 13.819-31.125 13.835-1.389 3e-3 -4.412 0.3-6.718 0.659-5.793 0.902-8.179-0.277-10.141-5.013-0.334-0.809-0.87-1.276-1.66-1.45-2.533-0.556-5.78-7.524-8.944-19.19-2.553-9.415-2.659-30.293-0.255-50.2 1.06-8.776 3.104-23.116 3.839-26.935 1.137-5.902 0.695-13.465-0.786-13.465-0.988 0-0.718-1.7 0.58-3.66 0.775-1.17 1.18-2.276 1.159-3.169-0.018-0.754 0.256-2.444 0.609-3.755s0.642-2.875 0.642-3.474 0.179-1.561 0.398-2.136c0.219-0.576 0.479-3.423 0.578-6.326 0.168-4.904 0.326-5.775 2.223-12.227 2.395-8.148 3.193-12.278 2.673-13.836-0.308-0.925-0.183-1.274 0.843-2.352 1.957-2.054 3.197-4.163 3.499-5.948 0.155-0.92 0.627-2.673 1.049-3.895 0.537-1.559 0.74-3.117 0.679-5.222-0.077-2.67 0.051-3.264 1.16-5.4 2.633-5.072 4.512-9.855 6.287-16.011 1.014-3.514 2.727-8.279 3.807-10.589s2.327-5.55 2.771-7.2c1.655-6.151 3.999-13.167 6.213-18.6 2.751-6.753 3.924-10.221 4.802-14.2 0.364-1.65 0.922-4.002 1.24-5.226 0.642-2.472 0.773-5.974 0.224-5.974-0.195 0-0.866 0.265-1.49 0.589-1.491 0.773-2.516 0.132-3.234-2.023-0.377-1.13-1.575-2.543-4.299-5.072-4.282-3.976-6.065-4.705-9.786-4.003m237.73 30.862c-3.067 0.878-5.22 2.199-5.98 3.668-0.325 0.63-1.356 1.932-2.29 2.894-4.67 4.81-8.483 10.143-14.79 20.685-2.434 4.07-5.724 9.395-7.311 11.833-1.586 2.437-3.615 5.677-4.508 7.2-0.892 1.522-2.268 3.387-3.057 4.145-1.063 1.023-1.433 1.712-1.433 2.67 0 0.818-0.395 1.76-1.078 2.572-2.372 2.819-1.638 7.672 0.871 5.758 1.984-1.513 2.866-1.027 2.67 1.474-0.211 2.686-1.025 4.278-2.337 4.571-2.252 0.503-2.448 0.623-2.938 1.807-0.274 0.661-1.014 1.914-1.643 2.783-1.265 1.746-1.406 2.881-0.545 4.387 0.961 1.681 0.686 3.282-1.2 6.978-3.292 6.452-2.387 8.086 1.35 2.435 1.377-2.082 3.302-4.674 4.277-5.758 1.566-1.742 1.773-2.192 1.773-3.852 0-2.205 0.615-3.223 4.269-7.064 2.77-2.913 3.228-4.503 1.887-6.55-0.835-1.274-0.455-2.989 0.662-2.989 0.489 0 0.951 0.393 1.186 1.01 0.812 2.136 2.284 1.653 3.541-1.163 0.87-1.95 4.645-6.024 5.24-5.656 0.61 0.377 0.513 1.039-0.403 2.747l-0.818 1.526 1.467 2.209c1.723 2.595 3.741 3.704 6.769 3.72 3.716 0.019 5.137 1.443 5.593 5.607 0.157 1.43 0.658 3.41 1.114 4.4 0.455 0.99 0.879 2.52 0.941 3.4 0.061 0.88 0.211 3.11 0.333 4.956 0.122 1.845 0.491 4.263 0.82 5.372 0.329 1.11 0.599 2.691 0.599 3.514 0 0.824 0.344 3.086 0.765 5.028 0.421 1.941 1.056 5.51 1.412 7.93 1.577 10.725 2.687 15 3.895 15 0.895 0 0.88-0.474-0.172-5.2-0.22-0.99-0.529-6.39-0.685-12-0.168-6-0.48-10.776-0.758-11.6-0.26-0.77-0.549-4.106-0.642-7.413-0.093-3.308-0.359-6.514-0.592-7.126-0.62-1.632-0.523-6.108 0.162-7.432 0.689-1.332 1.322-1.629 3.474-1.629 2.17 0 2.932-0.495 3.693-2.396 1.541-3.852 0.875-4.843-3.619-5.382-4.556-0.546-4.733-0.825-3.955-6.24 0.299-2.08 0.655-6.302 0.791-9.382 0.25-5.673 1.065-11.247 2.016-13.8 0.287-0.77 0.831-3.47 1.209-6 0.659-4.417 2.54-12.852 3.611-16.2 0.356-1.111 0.409-2.248 0.175-3.718-0.738-4.634-1.328-5.012-5.811-3.729m-265.45 11.106c0.249 2.561-5.338 10.458-6.545 9.251-0.785-0.784 0.344-5.203 1.765-6.907 0.802-0.961 1.789-2.22 2.194-2.798 1.038-1.483 2.422-1.239 2.586 0.454m254.72 28.982c0.684 0.755 0.775 1.633 0.886 8.573 0.158 9.936 0.724 9.486-7.524 5.98-1.21-0.514-2.515-1.033-2.9-1.152-0.96-0.297-0.877-1.468 0.217-3.086 0.504-0.746 1.526-2.436 2.272-3.756 4.285-7.586 5.279-8.512 7.049-6.559m-249.76 13.287c-0.623 1.726-0.606 2.272 0.073 2.272 0.58 0 1.032-1.173 1.042-2.7 8e-3 -1.317-0.563-1.098-1.115 0.428m223.12 3.672c0 0.33-0.27 0.6-0.6 0.6s-0.6-0.27-0.6-0.6 0.27-0.6 0.6-0.6 0.6 0.27 0.6 0.6m-9.517 7.077c-0.731 0.731-0.579 1.523 0.293 1.523 1.052 0 1.445-0.751 0.754-1.441-0.441-0.441-0.67-0.459-1.047-0.082m-214.55 42.276c0.147 1.007-0.554 2.047-1.38 2.047-0.337 0-0.551-0.435-0.551-1.12 0-1.98 1.659-2.776 1.931-0.927m-1.295 5.45c0.666 2.65-0.767 12.918-1.954 14.006-0.485 0.445-1.386 1.48-2.002 2.3-1.993 2.652-3.258 1.115-1.481-1.799 0.439-0.721 0.799-1.978 0.8-2.795 0-0.817 0.354-2.437 0.784-3.6 0.431-1.163 0.955-3.517 1.163-5.229 0.495-4.057 1.993-5.662 2.69-2.883m208.56 26.174c-7.028 2.166-21.662 13.881-26.817 21.469-11.913 17.531-21.959 49.64-20.637 65.954 0.43 5.295 0.999 9.203 1.576 10.808 0.318 0.885 0.703 2.595 0.857 3.8 1.487 11.664 9.131 30.551 16.598 41.014 1.091 1.528 2.65 3.885 3.466 5.239 1.2 1.992 1.858 2.637 3.453 3.384 1.158 0.542 2.631 1.712 3.574 2.839 2 2.388 2.538 2.408 7.054 0.27 5.454-2.582 10.431-8.06 11.952-13.154 0.295-0.99 0.787-2.34 1.093-3 1.331-2.875 1.588-4.5 0.884-5.576-0.736-1.123-0.956-1.186-5.987-1.734-2.558-0.279-3.829-0.616-4.6-1.221-0.586-0.46-1.973-1.364-3.082-2.009-5.747-3.341-10.786-12.414-12.919-23.26-1.619-8.232-2.045-11.152-2.244-15.4-0.353-7.54 0.186-13.416 2.434-26.525 0.352-2.049 0.533-4.39 0.403-5.202-0.361-2.26 2.861-12.83 5.949-19.516 5.053-10.939 16.603-22.405 16.59-16.47-5e-3 2.41-2.497 11.545-5.594 20.513-1.532 4.434-3.203 11.314-3.203 13.188 0 1.376-1.31 5.277-2.555 7.612-0.94 1.761-0.802 3.012 0.742 6.742 1.185 2.862 1.331 3.549 1 4.702-1.145 3.995-0.089 6.599 4.461 10.991 9.517 9.187 18.831 8.356 31.094-2.774 1.902-1.726 5.385-4.754 7.74-6.729 2.356-1.975 4.38-3.892 4.499-4.261 0.364-1.124 4.693-5.398 7.491-7.394 4.924-3.514 5.109-5.871 0.639-8.122-4.284-2.157-9.749-0.747-18.511 4.777-1.98 1.248-4.915 3.034-6.522 3.969-1.606 0.934-4.067 2.43-5.467 3.324-6.447 4.116-8.842 3.346-7.56-2.432 0.341-1.536 0.776-3.513 0.966-4.393 0.191-0.88 1.086-3.76 1.988-6.4 2.133-6.237 2.909-9.067 4.771-17.4 0.823-3.684 4.436-15.529 6.1-20 0.45-1.21 1.252-3.453 1.782-4.985s1.318-3.387 1.753-4.123c2.211-3.748-2.501-6.394-9.309-5.227-2.947 0.505-6.559-0.492-9.895-2.73-1.442-0.968-3.928-1.199-6.007-0.558" fill="#de2b2b"/>
<path d="m0 200.9v199.1h200 200v-199.1-199.1h-200-200v199.1m132.53-163.86c0.946 0.331 2.46 1.4 3.5 2.471 1.009 1.038 2.658 2.562 3.666 3.386s2.072 2.039 2.364 2.7c0.594 1.341 0.978 1.448 2.113 0.589 3.53-2.67 4.684 1.455 2.632 9.413-0.652 2.53-1.19 4.962-1.197 5.405-0.018 1.33-2.118 7.548-4.185 12.395-2.148 5.036-3.419 8.345-3.994 10.4-0.369 1.32-0.861 2.94-1.093 3.6-0.233 0.66-0.839 2.64-1.347 4.4-1.52 5.266-1.704 5.775-3.218 8.881-1.507 3.091-2.857 6.955-4.235 12.119-0.44 1.65-1.035 3.54-1.322 4.2-0.288 0.66-0.756 1.83-1.04 2.6s-0.823 1.85-1.197 2.4-0.811 1.63-0.97 2.4c-0.158 0.77-0.545 1.805-0.859 2.301s-0.834 2.778-1.156 5.073c-0.323 2.294-0.838 4.949-1.146 5.899s-0.662 2.424-0.787 3.275c-0.125 0.852-0.85 2.832-1.612 4.4-1.541 3.175-3.05 7.75-3.05 9.245 0 0.538-0.384 2.003-0.853 3.256-0.693 1.854-0.812 2.824-0.632 5.193 0.161 2.137 0.08 3.03-0.304 3.349-0.7 0.58-0.949 1.645-0.612 2.607 0.152 0.431 0.112 1.419-0.087 2.193-0.199 0.775-0.417 2.489-0.485 3.809-0.067 1.32-0.416 3.261-0.775 4.314-0.358 1.053-0.652 2.363-0.652 2.913 0 0.549-0.27 1.645-0.6 2.435-0.33 0.789-0.6 2.155-0.6 3.033 0 0.879-0.261 2.432-0.58 3.451-0.844 2.702-1.541 9.439-1.642 15.879-0.051 3.22-0.349 6.811-0.699 8.4-0.639 2.907-1.324 7.511-1.871 12.575-0.178 1.65-0.519 4.26-0.757 5.8-3.409 22.019-3.065 45.577 0.854 58.4 3.291 10.769 4.261 12.723 6.581 13.272 1.338 0.316 1.638 0.636 2.756 2.941 2.01 4.142 5.869 5.446 10.69 3.613 0.616-0.234 2.593-0.427 4.394-0.429 6.669-6e-3 15.825-4.122 30.274-13.61 2.97-1.951 6.232-3.914 7.25-4.363 1.017-0.45 2.332-1.449 2.92-2.221 0.589-0.771 1.287-1.404 1.55-1.406 0.264-2e-3 1.533-0.985 2.819-2.185 2.682-2.503 3.575-2.9 4.909-2.186 1.431 0.766 2.106 0.255 9.515-7.2 6.121-6.16 6.637-6.791 6.637-8.122 0-2.319 4.39-7.24 6.299-7.062 1.837 0.172 2.741-0.366 4.967-2.958 1.174-1.366 3.137-3.564 4.363-4.884 1.227-1.32 3.095-3.48 4.152-4.8 2.722-3.4 5.634-6.697 8.429-9.544 1.325-1.351 2.71-2.886 3.076-3.412 0.367-0.525 3.427-3.945 6.8-7.6 3.374-3.654 6.756-7.454 7.516-8.444s1.746-2.065 2.19-2.388c1.672-1.217 7.907-8.357 16.285-18.65 2.132-2.619 4.382-5.383 5-6.141 0.617-0.758 2.183-2.623 3.479-4.144 2.245-2.633 7.706-9.451 9.844-12.287 0.55-0.73 2.088-2.691 3.418-4.359 1.329-1.667 2.854-3.661 3.389-4.431 0.534-0.77 1.112-1.58 1.283-1.8 0.172-0.22 1.595-2.11 3.164-4.2 9.897-13.187 17.638-20.078 20.317-18.085 2.216 1.648 0.444 5.262-5.427 11.069-4.569 4.52-5.344 5.657-5.344 7.84 0 1.152-0.298 2.1-0.923 2.938-3.665 4.916-4.411 8.989-1.351 7.378 0.481-0.253 0.964-0.576 1.074-0.719 1.457-1.89 4.858-2.607 5.619-1.185 0.58 1.084 0.067 2.364-2.631 6.564-8.006 12.46-14.457 21.495-21.524 30.145-3.504 4.289-5.692 7.819-7.234 11.668-0.969 2.421-4.882 8.081-8.182 11.835-0.796 0.906-2.294 2.796-3.329 4.2-4.918 6.673-9.857 12.826-11.522 14.352-0.12 0.11-1.203 1.366-2.407 2.79-1.205 1.425-2.431 2.849-2.725 3.164-0.295 0.316-0.955 1.22-1.468 2.01s-1.929 2.696-3.147 4.236c-3.363 4.252-4.894 6.618-5.566 8.6l-0.611 1.8 1.064 0.203c3.008 0.573 0.259 4.987-9.521 15.289-6.492 6.839-7.965 8.708-6.863 8.708 0.745 0 0.743 1.624-2e-3 2.572-1.074 1.365-2.236 1.656-3.187 0.796-1.164-1.054-4.654 2.508-4.069 4.152 0.333 0.937-0.762 2.856-2.102 3.685-0.723 0.446-1.415 1.077-1.54 1.401-0.323 0.843-2.675 2.188-3.853 2.205-1.275 0.018-2.026 0.606-3.247 2.541-0.634 1.004-1.463 1.709-2.352 2-0.842 0.275-1.718 0.99-2.265 1.848-1.653 2.597-2.61 3.62-3.883 4.152-0.698 0.292-2.075 1.378-3.061 2.414-0.985 1.036-2.706 2.492-3.822 3.234-1.117 0.743-2.267 1.635-2.556 1.983-0.289 0.349-2.164 1.461-4.166 2.473-2.003 1.011-4.364 2.336-5.247 2.943-0.883 0.608-2.324 1.515-3.203 2.016-11.093 6.324-15.307 8.43-18.798 9.392-9.211 2.538-9.909 2.661-15.6 2.73-4.986 0.061-5.754 0.164-7.004 0.939-1.69 1.048-5.151 1.59-6.282 0.985-0.439-0.235-1.974-0.615-3.411-0.845-1.438-0.229-3.129-0.686-3.758-1.014-0.63-0.328-1.29-0.598-1.467-0.6-1.98-0.015-11.473-6.617-14.878-10.347-1.32-1.446-3.494-3.805-4.831-5.242-9.561-10.277-16.434-26.032-15.755-36.113 0.033-0.495-0.142-2.16-0.389-3.7-0.747-4.647-1.028-23.193-0.417-27.459 0.512-3.569 0.575-3.715 2.41-5.559 2.16-2.171 2.237-2.459 2.757-10.182 0.193-2.86 0.532-6.1 0.755-7.2 0.222-1.1 0.513-3.53 0.646-5.4 0.333-4.685 0.989-10.064 1.634-13.4 0.298-1.54 0.65-4.69 0.781-7 0.487-8.545 2.904-18.593 6.021-25.029 1.469-3.034 1.699-3.821 1.407-4.8-0.193-0.644-0.37-0.991-0.394-0.771-0.138 1.276-1.485 2.283-2.157 1.611-0.881-0.881-0.902-3.919-0.032-4.641 0.496-0.412 0.582-0.974 0.391-2.549-0.184-1.511 0.02-3.031 0.805-6.021 1.005-3.824 1.73-8.751 1.961-13.324 0.15-2.968 0.899-6.483 2.251-10.569 0.636-1.921 1.156-3.991 1.156-4.6 0-1.084 3.231-14.775 4.793-20.307 0.434-1.54 1.337-5.14 2.005-8 0.669-2.86 1.392-5.753 1.609-6.428 0.216-0.676 0.393-1.613 0.393-2.082 0-1.016 0.73-2.821 1.529-3.779 0.316-0.378 0.717-1.368 0.891-2.2 0.174-0.831 0.599-2.501 0.943-3.711 0.345-1.21 0.63-2.808 0.632-3.552 3e-3 -0.743 0.455-2.599 1.005-4.123 1.21-3.356 1.246-4.193 0.196-4.526-0.822-0.261-1.996-2.102-1.996-3.13 0-3.258-2.074-1.3-10.312 9.731-1.396 1.87-3.112 4.102-3.813 4.96-4.273 5.228-4.666 5.926-4.671 8.289-4e-3 2.001-0.214 2.574-1.911 5.2-2.029 3.14-2.893 4.851-2.893 5.73 0 0.298-0.72 2.086-1.6 3.973s-1.601 3.66-1.601 3.939c-1e-3 0.28-0.388 1.139-0.859 1.909-1.703 2.783-3.476 6.671-4.651 10.2-0.659 1.98-1.849 4.996-2.644 6.702s-1.445 3.393-1.445 3.75-1.389 3.461-3.088 6.898c-3.735 7.56-4.098 8.527-4.106 10.919-3e-3 1.029-0.212 2.764-0.465 3.857-0.416 1.806-0.38 2.096 0.4 3.192 0.473 0.663 0.859 1.748 0.859 2.411 0 0.662 0.36 2.045 0.8 3.071 1.397 3.259 0.537 4.606-3.6 5.642-1.43 0.358-3.59 1.162-4.8 1.786s-3.1 1.332-4.2 1.573-2.72 0.924-3.6 1.518c-5.952 4.02-20.491-1.53-23.853-9.106-0.436-0.983-1.38-2.513-2.098-3.4-2.365-2.922-2.667-4.065-2.924-11.068l-0.171-4.654 2.023-3.925c1.589-3.083 2.023-4.329 2.023-5.81 0-1.574 0.25-2.203 1.517-3.82 0.834-1.065 1.927-2.608 2.428-3.429s1.434-1.865 2.073-2.32c0.64-0.455 2.594-2.543 4.344-4.639l3.182-3.812-0.201-3.468c-0.25-4.331 0.375-5.786 3.122-7.264 1.025-0.552 2.38-1.544 3.011-2.204s2.899-2.516 5.041-4.124c3.231-2.426 4.508-3.736 7.496-7.693 1.981-2.624 4.154-5.178 4.828-5.677 0.675-0.498 2.967-2.879 5.093-5.29 6.231-7.066 6.561-7.436 8.879-9.984 1.218-1.338 3.499-4.232 5.069-6.432 1.571-2.2 3.284-4.45 3.807-5s1.703-2.08 2.622-3.4c4.31-6.188 5.836-8.173 7.996-10.4 2.234-2.304 4.394-4.718 6.465-7.224 8.709-10.543 13.718-15.185 19.428-18.003 6.536-3.226 7.693-3.413 11.933-1.932m237.17 30.22c2.35 1.232 2.876 7.098 1.16 12.939-1.298 4.418-2.86 12.309-2.86 14.446 0 0.659-0.34 2.269-0.756 3.576-1.456 4.576-2.073 8.981-2.853 20.378-0.559 8.154-0.917 7.201 2.909 7.741 4.124 0.583 4.678 1.146 4.691 4.763 0.017 4.706-1.752 6.896-5.571 6.896-0.803 0-1.676 0.216-1.94 0.48-0.597 0.597-0.633 5.065-0.053 6.59 0.234 0.618 0.49 3.554 0.568 6.526s0.426 6.754 0.773 8.404c0.456 2.168 0.635 5.329 0.646 11.4 0.01 6.153 0.18 9.096 0.633 11 1.853 7.781 0.87 10.697-2.835 8.408-1.826-1.129-3.018-5.116-4.428-14.808-0.304-2.09-0.946-5.78-1.427-8.2s-0.987-5.75-1.124-7.4-0.494-3.437-0.793-3.971c-0.463-0.826-0.943-6.175-0.861-9.594 0.012-0.531-0.345-1.59-0.795-2.352-0.464-0.787-1.007-2.792-1.255-4.635-0.569-4.224-0.928-4.586-4.648-4.689-2.586-0.072-2.989 0.017-3.523 0.78-1.269 1.812-3.189 0.587-2.143-1.367 0.46-0.86 0.42-1.084-0.347-1.899-0.477-0.509-0.868-1.107-0.868-1.329 0-2.043-2.742-2.216-3.378-0.213-0.127 0.4-0.938 1.124-1.803 1.611-0.865 0.486-1.657 1.193-1.759 1.571s-0.291 1.163-0.42 1.746c-0.129 0.582-1.153 1.932-2.276 3-3.056 2.906-4.408 5.022-4.122 6.453 0.264 1.319-0.478 3.053-1.829 4.276-1.559 1.411-5.347 7.152-6.462 9.795-1.267 3.004-1.947 3.617-4.013 3.617-2.96 0-2.863-4.517 0.226-10.57 1.816-3.558 2.266-5.64 1.407-6.499-0.973-0.973-0.629-3.975 0.641-5.592 0.665-0.846 1.437-2.058 1.715-2.693l0.505-1.153-1.589 0.254c-3.094 0.495-5.037-1.346-4.018-3.807 0.657-1.586 1.41-2.084 3.52-2.327l1.855-0.213 0.239-2.6c0.156-1.693 0.609-3.284 1.3-4.56 0.584-1.077 1.061-2.279 1.061-2.67 0-0.392 0.595-1.22 1.322-1.841 1.172-1 4.278-5.284 4.278-5.899 0-0.129 1.511-2.529 3.358-5.333 1.848-2.803 4.143-6.437 5.1-8.074 0.958-1.637 2.192-3.718 2.742-4.623s1.747-2.896 2.661-4.423c3.267-5.462 8.653-12.631 12.208-16.251 1.029-1.046 1.99-2.283 2.138-2.747 0.319-1.005 4.759-3.976 5.955-3.985 0.461-3e-3 1.558-0.268 2.438-0.587 1.569-0.57 3.307-0.476 4.7 0.254m-19.681 46.253c-0.734 1.257-1.938 3.303-2.676 4.546-0.739 1.243-1.343 2.468-1.343 2.722 0 0.482 3.397 2.172 5.3 2.636l1.1 0.269v-5.795c0-7.124-0.376-7.816-2.381-4.378m-312.02 10.329c0 0.639-1.03 0.755-1.4 0.157-0.136-0.22-0.141-0.572-0.011-0.783 0.329-0.532 1.411-0.052 1.411 0.626m165.3 26.573c5.782 0.966 7.429 1.371 9.236 2.27 3.318 1.652 12.649 11.63 14.541 15.55 0.507 1.051 1.27 2.283 1.696 2.738 1.56 1.667 3.415 12.893 3.086 18.676-0.371 6.513-4.662 21.15-6.201 21.15-0.216 0-1.353 0.866-2.526 1.924-2.07 1.868-2.953 2.469-6.732 4.585-0.99 0.554-3.42 1.928-5.4 3.053-6.476 3.681-10.478 4.926-12.874 4.005-0.619-0.238-3.155-0.484-5.636-0.547-5.47-0.138-7.83-1.527-5.29-3.113 2.443-1.526-0.342-3.801-2.877-2.35-0.728 0.417-2.458 0.95-3.846 1.184-1.628 0.276-2.763 0.709-3.2 1.22-1.45 1.699-5.327 1.08-7.984-1.275-1.046-0.927-2.388-2.046-2.982-2.486s-2.212-2.691-3.596-5.001c-1.383-2.311-2.918-4.766-3.41-5.456-1.43-2.002-3.329-10.056-3.497-14.829-0.079-2.248-0.255-4.266-0.39-4.485-1.005-1.626 1.638-11.493 3.636-13.577 2.299-2.398 4.865-5.673 5.51-7.033 0.711-1.498 6.209-6.579 8.236-7.611 0.77-0.392 2.229-1.483 3.243-2.424 3.143-2.916 7.696-4.813 12.957-5.397 1.76-0.196 4.1-0.622 5.2-0.949 2.058-0.609 4.699-0.558 9.1 0.178m-16.4 8.243c-0.715 0.353-1.3 0.888-1.3 1.191 0 0.821 1.99 0.675 3.52-0.258 2.318-1.413 0.394-2.222-2.22-0.933m-15.273 11.291c-1.118 2.089-0.806 5.235 0.47 4.745 0.601-0.231 1.663-4.513 1.275-5.14-0.374-0.606-1.325-0.391-1.745 0.395m-77.127 3.124c-0.495 1.141-0.9 2.718-0.9 3.505s-0.36 2.73-0.8 4.318-0.8 3.324-0.8 3.857v0.97l0.977-1.137c0.678-0.789 1.115-2.001 1.428-3.962 0.247-1.554 0.63-3.455 0.851-4.225 0.22-0.77 0.343-2.3 0.272-3.4l-0.128-2-0.9 2.074m93.767 3.916c-0.736 0.736-0.389 2.127 0.695 2.791 0.887 0.543 1.923-0.744 1.755-2.181-0.141-1.207-1.512-1.548-2.45-0.61m103.85 0.107c-1.032 0.895-3.319 4.486-3.319 5.21 0 0.691 0.584 0.133 1.994-1.907 0.532-0.77 1.084-1.49 1.227-1.6 0.427-0.329 1.257-2.055 1.076-2.237-0.093-0.092-0.533 0.148-0.978 0.534m-91.919 6.876c-1.491 0.6-8.328 0.913-9.574 0.438-1.528-0.582-3.546 1.188-3.466 3.041 0.241 5.647 0.391 7.006 0.828 7.534 0.321 0.387 0.406 1.079 0.232 1.91-0.149 0.717-0.37 2.09-0.49 3.051s-0.648 2.381-1.174 3.156c-1.736 2.558-1.371 4.314 1.135 5.466 2.388 1.098 3.352 0.871 3.741-0.881 0.483-2.172 0.641-2.499 2.297-4.775 0.925-1.272 1.899-2.803 2.163-3.402 0.27-0.612 0.924-1.2 1.494-1.343 0.835-0.21 1.014-0.494 1.014-1.604 0-1.141 0.169-1.389 1.1-1.612 1.882-0.449 2.472-1.223 3.319-4.352 0.179-0.66 0.599-2.173 0.934-3.363 0.919-3.269-0.44-4.517-3.553-3.264m86.68 0.447c-0.264 0.423-0.48 0.856-0.48 0.962 0 0.408 1.149-0.272 1.352-0.8 0.339-0.883-0.342-1.009-0.872-0.162m-3.533 4.542c-1.301 1.394-1.925 2.681-1.156 2.386 0.335-0.128 0.609-0.349 0.609-0.491 1e-3 -0.141 0.451-0.78 1-1.419 0.55-0.639 1-1.224 1-1.3 0-0.383-0.693 0.011-1.453 0.824m33.966 17.144c2.872 2.191 4.798 2.639 10.318 2.401 5.661-0.245 6.416-0.025 9.191 2.668 1.889 1.833 1.899 1.954 0.405 5.018-1.089 2.236-2.183 5.087-3.838 10.007-0.37 1.1-0.945 2.81-1.278 3.8-1.941 5.775-3.847 12.012-4.097 13.4-0.159 0.88-0.48 2.32-0.714 3.2-0.235 0.88-0.735 3.04-1.111 4.8-0.866 4.047-1.266 5.508-2.191 8-3.023 8.14-4.822 16.2-3.617 16.2 0.642 0 2.536-0.91 4.219-2.028 0.88-0.584 2.41-1.466 3.4-1.958 0.99-0.493 2.7-1.479 3.8-2.191 5.627-3.641 7.733-4.925 9.1-5.544 1.829-0.828 4.221-1.853 5.3-2.27 0.44-0.17 1.303-0.512 1.919-0.759 4.636-1.864 13.081 1.581 13.081 5.337 0 2.344-1.658 4.713-4.771 6.816-2.051 1.386-5.853 5.113-7.199 7.057-0.51 0.737-2.545 2.69-4.522 4.34s-4.881 4.243-6.452 5.762-3.397 3.139-4.058 3.6c-0.66 0.461-1.83 1.314-2.6 1.895-10.331 7.809-21.173 6.678-30.204-3.152-3.745-4.077-4.836-7.269-3.737-10.937 0.411-1.372 0.344-1.758-0.667-3.847-1.725-3.561-1.799-6.492-0.242-9.556 0.817-1.608 1.429-3.685 1.825-6.192 0.632-4.004 2.067-9.372 4.431-16.573 2.245-6.841 2.554-7.839 3.196-10.32 0.89-3.439 0.823-4.828-0.205-4.277-1.872 1.002-7.443 8.471-10.325 13.842-3.037 5.663-6.496 16.788-6.445 20.731 0.018 1.333-0.177 3.324-0.432 4.424s-0.611 3.35-0.793 5c-0.181 1.65-0.548 3.99-0.815 5.2-0.947 4.285-0.955 20.217-0.011 24.666 0.454 2.144 0.826 4.322 0.826 4.841 0 0.518 0.257 1.787 0.572 2.818s0.878 2.955 1.253 4.275c1.262 4.452 1.722 5.676 3.245 8.629 1.609 3.118 5.301 7.414 7.195 8.373 0.624 0.315 1.87 1.062 2.769 1.66 1.347 0.895 2.261 1.133 5.2 1.354 7.177 0.541 9.502 4.448 5.962 10.02-0.292 0.46-0.743 1.63-1.002 2.6-0.471 1.758-4.37 7.959-6.339 10.08-1.331 1.434-4.162 3.236-6.455 4.108-0.99 0.377-2.464 1.2-3.277 1.83-2.235 1.735-4.49 0.95-6.731-2.34-0.721-1.059-1.62-1.714-3.159-2.301-1.974-0.754-2.263-1.034-3.524-3.417-0.756-1.428-1.605-2.866-1.888-3.196-3.967-4.625-11.515-19.165-13.894-26.763-0.661-2.11-1.54-4.737-1.954-5.837s-0.953-2.9-1.198-4c-0.244-1.1-0.618-2.577-0.829-3.282-0.384-1.28-0.999-4.614-2.147-11.647-0.335-2.051-0.8-4.571-1.035-5.6-0.462-2.033-0.189-9.457 0.46-12.471 0.213-0.99 0.558-3.33 0.767-5.2s0.757-5.02 1.218-7 0.989-4.32 1.172-5.2c0.184-0.88 0.777-2.95 1.318-4.6s1.267-3.9 1.612-5c2.24-7.139 5.028-13.484 9.949-22.646 4.324-8.051 9.959-14.8 16.34-19.569 0.99-0.74 2.444-1.894 3.231-2.565 3.139-2.676 4.284-3.463 7.035-4.83 6.732-3.348 10.625-3.836 13.447-1.684m23.602 22.112c-0.169 2.228-2.915 3.525-2.915 1.376 0-0.989 1.816-2.927 2.511-2.68 0.269 0.095 0.451 0.682 0.404 1.304m-108.52 54.133c0 0.729-1.093 1.304-1.326 0.698-0.12-0.314-0.111-0.678 0.02-0.81 0.365-0.365 1.306-0.284 1.306 0.112" fill="#232424"/>
<path d="m195.2 151.88c-3.79 1.965 1.529 5.539 8.699 5.844 4.572 0.195 6.31 1.492 6.28 4.685-0.03 3.206-2.554 4.612-5.38 2.996-1.318-0.753-2.8-0.762-2.8-0.016 0 0.58 0.169 0.768 1.898 2.116 0.493 0.385 0.763 0.881 0.6 1.101-0.398 0.537-4.449 2.999-4.934 2.999-1.847 0-6.713 8.065-5.778 9.577 0.16 0.259 2.432 0.377 6.134 0.317 8.646-0.138 10.703 1.688 8.057 7.153-0.895 1.849-0.791 2.615 0.263 1.939 0.547-0.351 1.05-1.38 3.163-6.462 1.409-3.388 2.258-2.528 1.036 1.049-0.918 2.688-1.439 9.682-0.714 9.591 1.103-0.137 1.475 0.084 1.475 0.879 0 1.253-2.334 5.91-3.243 6.47-0.435 0.268-1.26 1.297-1.834 2.287s-1.781 2.633-2.683 3.651-1.93 2.278-2.284 2.801c-0.763 1.125-4.158 2.918-4.788 2.528-0.269-0.166-0.339-0.808-0.18-1.656 0.474-2.527-0.674-3.12-2.674-1.381-0.723 0.628-2.034 1.371-2.914 1.65-2.716 0.862-4.099 2.622-3.305 4.207 1.75 3.493 5.686 4.628 7.594 2.19 0.598-0.765 1.988-1.634 3.769-2.359 4.55-1.852 5.345-2.371 9.338-6.092 4.397-4.099 4.804-4.245 4.804-1.719 0 3.078-1.349 4.905-4.42 5.985-0.979 0.345-2.41 1.127-3.18 1.738s-2.521 1.868-3.89 2.793c-3.312 2.235-4.337 4.064-2.278 4.064 1.523 0 5.786-1.81 10.768-4.571 2.42-1.341 5.099-2.796 5.953-3.234 3.591-1.838 7.647-6.478 7.649-8.748 1e-3 -1.518 0.345-2.732 1.331-4.699 0.853-1.701 1.455-3.639 1.679-5.4 0.193-1.512 0.563-3.353 0.824-4.093 0.521-1.479 0.265-6.411-0.427-8.23-0.225-0.593-0.409-1.841-0.409-2.776 0-1.195-0.26-1.977-0.878-2.64l-0.878-0.942-0.355 1.066c-0.304 0.912-0.582 1.067-1.908 1.067-2.32 0-2.587 0.827-1.555 4.807 0.986 3.805 0.562 5.193-1.586 5.193-2.258 0-2.941-4.75-1.457-10.133 0.626-2.271 0.673-2.957 0.277-4.052-0.304-0.841-0.349-1.662-0.124-2.267 0.384-1.034 2e-3 -7.877-0.484-8.664-0.17-0.275-0.694-0.388-1.207-0.26-0.897 0.226-1.723-0.391-4.102-3.062-0.471-0.529-1.446-1.463-2.166-2.076-1.922-1.637-1.025-2.428 1.336-1.178 4.16 2.204 3.13-1.242-1.116-3.731-3.312-1.941-14.714-3.485-16.996-2.302m-14.968 12.36c-2.231 0.608-3.122 1.484-1.734 1.705 0.484 0.076 1.412 0.587 2.063 1.135 1.73 1.456 5.438 0.459 5.438-1.462 0-1.817-2.213-2.346-5.767-1.378m11.467 1.652c-0.789 0.283-0.582 0.913 0.3 0.913 0.44 0 0.8-0.169 0.8-0.376 0-0.512-0.495-0.754-1.1-0.537m32.3 4.808c0 1.383 1.483 3.182 2.108 2.557 0.582-0.582-0.543-3.409-1.424-3.579-0.518-0.1-0.684 0.149-0.684 1.022m-58.685-0.435c-1.909 0.774-3.726 10.684-2.408 13.136 0.237 0.442 0.393 2.256 0.345 4.031-0.101 3.7 0.38 5.489 1.372 5.108 0.46-0.176 0.585-0.554 0.428-1.292-0.727-3.407-0.722-3.7 0.083-5.745 4.021-10.212 4.099-16.828 0.18-15.238m43.941 2.226c0.455 0.728-2.092 3.229-2.952 2.899-1.07-0.411-1.584-2.448-0.812-3.22 0.745-0.745 3.231-0.533 3.764 0.321m-36.777 14.724c-0.741 0.451-1.358 1.222-1.502 1.878-0.135 0.611-0.5 1.791-0.811 2.62-0.311 0.83-0.566 2.19-0.566 3.022 0 0.985-0.348 1.986-0.995 2.864-0.548 0.741-1.112 1.991-1.254 2.777s-0.513 1.933-0.825 2.549-0.455 1.474-0.318 1.906c0.152 0.477-0.089 1.334-0.611 2.18-1.484 2.4 0.403 6.765 3.114 7.202 0.819 0.132 1.965 0.498 2.548 0.814 1.839 0.998 6.075 2.167 7.867 2.173 3.192 9e-3 4.178-1.462 1.586-2.366l-1.224-0.426 0.33-2.302c0.549-3.824 0.24-9.991-0.667-13.301-3.172-11.578-4.084-13.163-6.672-11.59m-12.467 12.17c-9e-3 0.861 0.108 1.06 0.429 0.739 0.317-0.317 0.32-0.651 0.013-1.18-0.377-0.648-0.431-0.593-0.442 0.441" fill="#2d6e9a"/>
<path d="m126.56 37.18c-0.684 0.162-2.214 0.843-3.4 1.513-1.187 0.67-2.608 1.352-3.158 1.517-3.446 1.032-10.254 7.538-18.53 17.709-0.842 1.035-3.182 3.661-5.2 5.836-2.018 2.176-4.21 4.722-4.87 5.658-3.088 4.38-5.283 7.352-6.785 9.187-0.901 1.1-2.788 3.62-4.194 5.6-1.405 1.98-3.654 4.77-4.995 6.2-1.342 1.43-4.632 5.12-7.311 8.2-2.68 3.08-5.5 6.093-6.268 6.696-0.767 0.603-2.964 3.186-4.882 5.739-3.251 4.328-4.333 5.381-9.542 9.284-1.087 0.815-2.527 2.084-3.2 2.821-0.673 0.736-1.974 1.695-2.891 2.129-2.456 1.162-3.091 2.756-2.747 6.892 0.251 3.013 0.202 3.349-0.65 4.449-1.588 2.051-3.636 4.312-5.926 6.54-1.215 1.183-2.659 2.817-3.209 3.632-3.487 5.166-3.6 5.387-3.6 7.044 0 1.218-0.546 2.736-2.023 5.619l-2.023 3.95 0.154 4.203c0.192 5.237 0.99 8.325 2.636 10.2 0.692 0.787 1.732 2.37 2.313 3.517 3.199 6.321 9.63 10.009 17.543 10.061 3.092 0.021 3.774-0.1 4.834-0.856 0.679-0.485 2.533-1.241 4.121-1.681s3.473-1.162 4.189-1.604c0.716-0.443 2.326-1.072 3.579-1.398 4.652-1.212 5.39-2.156 4.1-5.245-0.343-0.819-0.623-1.941-0.623-2.494 0-0.552-0.386-1.628-0.858-2.392-0.806-1.304-0.831-1.587-0.409-4.647 0.247-1.793 0.523-3.979 0.612-4.859 0.094-0.921 1.528-4.4 3.381-8.2 1.77-3.63 3.349-7.14 3.509-7.8 0.159-0.66 0.91-2.55 1.668-4.2 0.757-1.65 1.921-4.62 2.586-6.6 1.136-3.381 1.916-5.144 4.425-10 1.224-2.369 3.969-8.933 4.683-11.2 0.277-0.88 1.095-2.434 1.818-3.452 2.123-2.991 2.564-4.104 2.471-6.233-0.08-1.847 0.065-2.175 2.192-4.946 1.252-1.633 3.654-4.769 5.338-6.969 11.26-14.717 11.415-14.862 12.843-12.075 0.967 1.889 1.403 1.969 2.436 0.449 2.283-3.359 2.005 1.681-0.468 8.493-0.572 1.578-1.202 4.098-1.398 5.6-0.492 3.765-1.348 6.775-2.584 9.093-0.575 1.077-1.045 2.247-1.044 2.6 1e-3 0.831-3.003 13.304-4.201 17.44-0.51 1.76-1.229 4.64-1.598 6.4-0.37 1.76-0.924 4.1-1.233 5.2-1.024 3.654-1.769 7.052-1.769 8.073 0 0.555-0.521 2.566-1.158 4.468-1.574 4.703-2.952 14.942-2.514 18.689 0.184 1.583 0.987 1.107 1.731-1.027 1.377-3.951 2.86-1.99 2.13 2.816-1.44 9.471-1.727 10.793-2.742 12.609-0.645 1.154-1.047 2.49-1.047 3.482 0 1.145-0.508 2.542-1.764 4.849-0.97 1.783-2.037 4.231-2.373 5.441-0.335 1.21-0.891 3.19-1.236 4.4-1.039 3.645-2.215 11.057-2.632 16.587-0.216 2.867-0.573 5.971-0.792 6.897-0.22 0.925-0.665 4.435-0.988 7.8-0.324 3.364-0.772 7.466-0.996 9.116-0.223 1.65-0.588 5.64-0.81 8.866-0.473 6.892-0.699 7.621-3.02 9.734-1.732 1.578-1.762 1.65-2.171 5.2-0.775 6.716-0.281 25.012 0.781 28.95 0.231 0.857 0.209 2.024-0.06 3.2-1.519 6.63 6.992 24.38 16.997 35.45 8.288 9.17 15.957 14.286 23.151 15.445 1.266 0.204 2.767 0.547 3.335 0.763 1.384 0.527 4.061 0.082 5.778-0.959 1.233-0.747 2.046-0.854 6.8-0.89 8.978-0.068 17.16-2.364 26.2-7.355 8.007-4.419 10.411-5.821 11.893-6.935 0.719-0.541 2.927-1.819 4.907-2.841 3.813-1.967 8.427-5.308 10.368-7.505 0.643-0.728 2.083-1.964 3.2-2.747 1.38-0.966 2.177-1.865 2.484-2.8 0.309-0.942 1.035-1.754 2.302-2.576 1.019-0.66 2.583-2.09 3.478-3.179 2.134-2.596 3.935-3.911 5.068-3.7 0.765 0.143 0.9-6e-3 0.9-0.989 0-0.846 0.441-1.557 1.64-2.644 0.902-0.819 2.657-2.568 3.9-3.888 1.243-1.319 5.237-5.459 8.875-9.2 10.947-11.254 15.864-17.415 13.885-17.395-0.572 6e-3 -5.925 5.139-14.281 13.695-5.135 5.259-6.419 6.398-6.419 5.695 0-1.042 4.56-6.411 10.188-11.995 7.787-7.726 8.337-8.393 10.567-12.809 0.891-1.765 2.462-4.195 3.492-5.4 1.029-1.205 2.819-3.541 3.977-5.191s3.966-5.138 6.241-7.752c5.19-5.965 8.356-9.925 20.586-25.749 1.127-1.459 2.314-3.204 2.635-3.876 3.359-7.018 5.19-10.277 6.738-11.997 1.576-1.75 4.14-5.078 10.809-14.026 4.443-5.961 13.614-19.955 14.287-21.8 1.441-3.948-4.234-1.488-6.943 3.01-0.752 1.248-2.308 3.467-3.458 4.93-1.151 1.463-3.209 4.14-4.574 5.949-1.365 1.81-3.029 3.97-3.697 4.8-6.117 7.607-9.05 10.911-9.684 10.911-1.069 0-0.186-1.961 1.636-3.637 1.445-1.328 2-2.136 2-2.911 0-0.778 0.639-1.699 2.333-3.362 1.569-1.539 2.42-2.727 2.597-3.623 0.164-0.833 0.977-2.048 2.167-3.24 1.046-1.05 2.303-2.52 2.791-3.268 2.745-4.202 4.732-7.09 5.568-8.09 0.588-0.704 0.944-1.647 0.944-2.499 0-0.895 0.692-2.614 2-4.97 1.1-1.981 2.001-3.916 2.002-4.301 8e-3 -2.366 0.964-3.889 4.929-7.851 5.399-5.395 7.843-9.314 6.589-10.568-2.195-2.195-10.862 6.288-22.395 21.92-2.029 2.75-5.406 7.16-7.503 9.8-2.098 2.64-4.447 5.637-5.22 6.659-1.307 1.728-2.852 3.595-11.675 14.105-1.83 2.179-4.587 5.526-6.127 7.437-4.731 5.87-8.379 10.108-12.271 14.258-6.762 7.208-13.666 14.729-17.929 19.532-2.31 2.602-5.037 5.649-6.061 6.77-1.023 1.121-3.093 3.519-4.6 5.327-4.505 5.407-10.91 12.458-12.001 13.209-0.561 0.387-1.573 1.203-2.249 1.813-0.834 0.753-1.36 0.979-1.636 0.703-0.662-0.662-2.253 1.127-2.253 2.532 0 1.029-1.071 2.283-7.3 8.545-8.563 8.609-9.893 9.663-11.263 8.93-1.275-0.683-2.333-0.27-4.108 1.603-0.821 0.867-1.721 1.577-1.999 1.577-0.279 0-0.898 0.53-1.377 1.177-0.478 0.648-2.059 1.744-3.512 2.435-2.205 1.049-6.226 3.534-11.668 7.21-8.913 6.021-20.426 10.759-26.176 10.772-1.541 3e-3 -3.355 0.165-4.03 0.358-6.267 1.797-9.494 0.79-11.712-3.656-1.049-2.101-1.54-2.696-2.224-2.696-2.022 0-3.573-2.51-5.814-9.411-0.927-2.854-1.937-5.861-2.245-6.682-2.528-6.745-3.257-32.067-1.326-46.107 0.212-1.54 0.541-4.6 0.731-6.8 0.191-2.2 0.537-5.26 0.77-6.8s0.721-4.96 1.086-7.6 0.931-6.06 1.258-7.6 0.753-6.4 0.946-10.8c0.413-9.417 0.853-13.975 1.496-15.526 0.257-0.619 0.467-1.722 0.467-2.451s0.27-1.972 0.6-2.761c0.33-0.79 0.6-2.04 0.6-2.778s0.298-2.217 0.663-3.287c0.549-1.613 0.584-2.243 0.2-3.677-0.632-2.364-0.581-5.339 0.12-7.018 0.321-0.767 0.876-2.724 1.233-4.349 0.357-1.624 0.975-4.033 1.373-5.353s0.94-3.48 1.203-4.8c0.264-1.32 0.615-3.03 0.779-3.8 0.165-0.77 0.845-2.252 1.511-3.293 0.666-1.042 1.428-2.752 1.694-3.8 1.702-6.713 2.025-8.213 2.35-10.907 0.35-2.899 0.963-4.709 3.319-9.8 1.521-3.287 2.546-6.026 3.145-8.4 1.152-4.567 2.549-8.62 4.205-12.2 1.549-3.348 3.255-8.431 5.237-15.6 0.334-1.21 2.143-6.051 4.018-10.758 1.876-4.707 3.683-9.747 4.017-11.2s1.05-4.442 1.593-6.642c1.918-7.78 1.252-10.837-1.859-8.537-1.298 0.959-2.401 0.544-2.401-0.905 0-1.276-7.639-8.5-9.6-9.078-2.196-0.647-4.092-0.822-5.442-0.5m3.811 1.214c2.671 0.507 9.276 6.343 10.153 8.972 0.718 2.155 1.743 2.796 3.234 2.023 0.624-0.324 1.295-0.589 1.49-0.589 0.549 0 0.418 3.502-0.224 5.974-0.318 1.224-0.876 3.576-1.24 5.226-0.878 3.979-2.051 7.447-4.802 14.2-2.214 5.433-4.558 12.449-6.213 18.6-0.444 1.65-1.691 4.89-2.771 7.2s-2.793 7.075-3.807 10.589c-1.775 6.156-3.654 10.939-6.287 16.011-1.109 2.136-1.237 2.73-1.16 5.4 0.061 2.105-0.142 3.663-0.679 5.222-0.422 1.222-0.894 2.975-1.049 3.895-0.302 1.785-1.542 3.894-3.499 5.948-1.026 1.078-1.151 1.427-0.843 2.352 0.52 1.558-0.278 5.688-2.673 13.836-1.897 6.452-2.055 7.323-2.223 12.227-0.099 2.903-0.359 5.75-0.578 6.326-0.219 0.575-0.398 1.537-0.398 2.136s-0.289 2.163-0.642 3.474-0.627 3.001-0.609 3.755c0.021 0.893-0.384 1.999-1.159 3.169-1.298 1.96-1.568 3.66-0.58 3.66 1.481 0 1.923 7.563 0.786 13.465-0.735 3.819-2.779 18.159-3.839 26.935-2.404 19.907-2.298 40.785 0.255 50.2 3.164 11.666 6.411 18.634 8.944 19.19 0.79 0.174 1.326 0.641 1.66 1.45 1.962 4.736 4.348 5.915 10.141 5.013 2.306-0.359 5.329-0.656 6.718-0.659 6.893-0.016 17.062-4.536 31.125-13.835 2.75-1.818 6.17-3.84 7.6-4.493s3.836-2.187 5.347-3.408c2.29-1.85 2.935-2.182 3.879-1.993 1.89 0.378 3.589-1.031 15.715-13.038 10.84-10.732 16.938-17.202 23.779-25.227 6.256-7.338 13.616-15.627 16.872-19 1.274-1.32 2.989-3.21 3.811-4.2s3.447-3.827 5.833-6.304 6.611-7.247 9.388-10.6c2.778-3.353 5.894-7.086 6.926-8.296 1.031-1.21 2.589-3.1 3.461-4.2 0.871-1.1 3.391-4.16 5.599-6.8 3.751-4.486 5.72-6.935 13.109-16.3 1.606-2.035 4.787-6.22 7.07-9.3 7.607-10.265 16.262-19.4 18.381-19.4 1.378 0-1.654 4.522-5.449 8.127-3.922 3.725-4.99 5.339-6.509 9.837-0.691 2.046-1.695 4.382-2.23 5.192-0.536 0.809-1.128 2.296-1.316 3.303-0.188 1.008-0.865 2.515-1.504 3.349-0.639 0.833-1.522 2.105-1.962 2.825-2.259 3.698-4.395 6.603-5.283 7.184-0.546 0.358-1.427 1.6-1.958 2.76-0.591 1.29-1.819 2.891-3.162 4.122-1.304 1.193-2.197 2.347-2.197 2.837 0 1.325-0.808 2.733-1.906 3.32-0.634 0.339-1.45 1.509-2.168 3.11-0.633 1.411-1.772 3.252-2.53 4.091-1.384 1.532-1.516 2.743-0.297 2.743 2.089 0 23.321-24.998 27.254-32.088 0.977-1.761 2.916-3.176 3.522-2.57 0.138 0.137-0.345 1.196-1.071 2.354-0.727 1.157-1.958 3.184-2.737 4.504s-2.344 3.66-3.478 5.2-2.275 3.2-2.534 3.689c-0.777 1.465-9.523 13.272-12.378 16.711-3.071 3.699-5.948 8.304-7.281 11.659-0.928 2.333-3.594 6.364-6.971 10.541-0.979 1.21-3.902 4.99-6.497 8.4s-5.546 7.1-6.559 8.2c-3.314 3.599-9.332 10.858-11.154 13.456-0.982 1.399-2.627 3.534-3.656 4.744-1.03 1.21-2.546 3.55-3.369 5.2-2.067 4.141-4.17 6.687-10.321 12.498-2.912 2.751-6.094 6.06-7.071 7.352-2.847 3.766-6.46 7.476-12.322 12.65-3.012 2.658-7.276 6.559-9.476 8.668-4.388 4.206-9.01 7.806-15.297 11.911-4.011 2.618-5.027 3.757-4.143 4.641 1.419 1.419 7.751-1.724 12.813-6.36 5.385-4.932 6.679-3.514 1.497 1.64-4.077 4.054-7.588 6.72-11.585 8.797-1.934 1.005-4.364 2.427-5.4 3.162-1.756 1.243-10.254 6.089-15.285 8.716-5.913 3.088-16.246 5.338-22.861 4.979-3.912-0.212-4.348-0.162-5.324 0.606-2.779 2.186-7.834 1.651-15.462-1.638-15.4-6.639-32.716-31.992-32.937-48.222-0.03-2.2-0.292-6.781-0.584-10.181-0.595-6.947-0.391-21.303 0.337-23.681 0.376-1.227 0.688-1.519 1.939-1.814 1.851-0.435 2.253-1.975 2.9-11.124 0.233-3.3 0.602-7.35 0.819-9 0.218-1.65 0.57-4.98 0.783-7.4 0.214-2.42 0.659-5.975 0.989-7.9 0.331-1.925 0.601-4.276 0.601-5.225 0-1.771 1.22-11.001 2.019-15.275 0.827-4.421 3.09-11.17 4.824-14.384 0.945-1.752 1.685-3.582 1.645-4.067-0.041-0.485 0.367-1.879 0.906-3.097 0.538-1.218 1.174-3.438 1.412-4.933 0.239-1.495 0.602-3.529 0.807-4.519 1.548-7.455 1.207-10.493-1.156-10.312l-1.457 0.112-0.119-3.195c-0.129-3.493 1.203-10.244 2.181-11.057 0.44-0.364 0.538-0.033 0.538 1.816 0 5.678 3.441 1.937 5.183-5.635 0.914-3.975-2.128-6-3.586-2.386-0.259 0.641-0.351 0.302-0.366-1.343-0.018-1.982 1.399-7.564 2.098-8.263 0.149-0.149 0.271-0.963 0.271-1.809 0-1.773 1.219-6.369 2.156-8.128l0.639-1.2 3e-3 1.181c3e-3 1.633-1.648 8.219-2.061 8.219-0.698 0-0.351 2.764 0.397 3.165 1.947 1.042 4.331-2.71 5.062-7.965 0.138-0.99 0.795-3.945 1.461-6.567 1.291-5.086 1.198-6.633-0.399-6.633-0.89 0-1.595 0.764-2.544 2.758l-0.687 1.442-0.013-1.675c-0.017-2.029 1.656-9.126 2.565-10.884 0.996-1.927 2.133-5.962 2.433-8.641 0.148-1.32 0.872-4.2 1.608-6.4 2.996-8.952 2.628-13.839-0.8-10.618-0.927 0.871-1.317 0.724-2.338-0.882-1.073-1.685-2.288-0.81-6.466 4.654-0.889 1.162-3.048 3.988-4.797 6.28-1.75 2.291-4.535 5.871-6.189 7.955-3.844 4.844-4.463 6.052-4.178 8.166 0.202 1.498 0.021 1.945-2.015 4.998-1.23 1.844-2.238 3.734-2.239 4.2s-0.81 2.557-1.798 4.647-1.797 4.046-1.798 4.348c-1e-3 0.301-0.618 1.562-1.372 2.802-1.27 2.091-4.23 8.888-4.23 9.713 0 0.2-0.924 2.562-2.053 5.25s-2.497 5.967-3.04 7.287c-0.544 1.32-2.078 4.584-3.409 7.252-2.124 4.26-2.463 5.262-2.767 8.2-0.191 1.842-0.451 4.198-0.579 5.237-0.183 1.496-0.056 2.171 0.609 3.247 0.461 0.747 0.845 1.877 0.853 2.511s0.272 1.603 0.586 2.153c1.313 2.297 0.757 2.959-3.374 4.017-0.975 0.249-2.755 0.978-3.956 1.618-1.2 0.641-2.567 1.165-3.038 1.165-0.47 0-2.169 0.63-3.776 1.4-7.528 3.608-18.283-0.431-21.903-8.226-0.466-1.005-1.42-2.478-2.119-3.274-3.46-3.941-3.834-11.857-0.837-17.764 1.414-2.788 1.997-4.409 2-5.558 3e-3 -1.594 0.303-2.174 3.603-6.967 0.55-0.799 1.993-2.433 3.206-3.632 6.328-6.25 7.452-8.079 6.813-11.089-0.652-3.075-0.192-4.836 1.54-5.89 0.723-0.44 2.271-1.61 3.439-2.6 3.044-2.58 4.911-4.109 7.291-5.969 1.149-0.897 3.391-3.387 4.983-5.531 1.591-2.145 4.268-5.25 5.948-6.9 1.679-1.65 4.747-4.976 6.817-7.391s4.86-5.565 6.201-7 4.131-4.911 6.2-7.725c2.069-2.813 4.798-6.503 6.065-8.2 1.266-1.696 2.999-4.074 3.85-5.284 0.85-1.21 2.759-3.46 4.241-5s3.35-3.607 4.15-4.592c9.433-11.615 16.041-17.994 20.13-19.432 0.949-0.334 2.373-1.034 3.163-1.555 1.264-0.835 2.197-1.169 3.808-1.367 0.245-0.029 1.381 0.123 2.524 0.34m235.03 29.444c-1.1 0.29-2.362 0.535-2.805 0.544-1.258 0.028-4.908 2.69-5.647 4.118-0.367 0.709-1.368 2.012-2.225 2.895-4.675 4.817-9.309 11.395-15.926 22.605-2.272 3.85-5.328 8.8-6.79 11s-3.277 5.057-4.033 6.349-2.049 2.994-2.874 3.782c-0.948 0.906-1.5 1.8-1.5 2.43 0 0.548-0.487 1.699-1.083 2.558-0.868 1.254-1.125 2.168-1.3 4.622l-0.217 3.059-1.882-0.118c-2.259-0.142-3.518 0.834-3.518 2.727 0 1.701 1.424 2.337 3.225 1.439 1.363-0.68 2.777-0.857 2.773-0.348-9e-3 1.183-1.028 3.477-2.199 4.95-1.588 1.997-1.722 3.132-0.71 5.984l0.69 1.941-1.948 3.712c-2.959 5.641-3.125 11.398-0.277 9.642 0.355-0.219 1.385-1.763 2.289-3.432 1.845-3.408 3.975-6.479 6.234-8.988 1.326-1.472 1.523-1.945 1.523-3.646 0-2.22 0.362-2.807 4.273-6.924 2.155-2.269 2.527-2.876 2.527-4.121 0-1.27 0.17-1.53 1.308-2.005 1.493-0.624 2.344-1.494 3.144-3.213 0.843-1.81 1.857-1.531 3.818 1.05 2.04 2.683 3.765 3.596 7.435 3.933 3.562 0.328 4.059 0.872 4.624 5.065 0.243 1.811 0.791 3.849 1.238 4.607 0.642 1.088 0.842 2.321 1.002 6.185 0.11 2.655 0.411 5.352 0.668 5.993 0.257 0.642 0.598 2.427 0.757 3.967s0.854 5.95 1.544 9.8 1.553 8.71 1.918 10.8c1.312 7.529 2.429 9.841 4.605 9.533 1.315-0.186 1.391-1.803 0.312-6.621-0.739-3.301-0.889-5.318-0.96-12.912-0.049-5.231-0.283-9.837-0.558-11-0.261-1.1-0.661-4.97-0.89-8.6s-0.508-7.891-0.621-9.469c-0.274-3.84 0.116-4.529 2.57-4.537 3.616-0.011 5.284-1.91 5.285-6.018 1e-3 -3.158-0.382-3.504-4.483-4.052-4.062-0.543-4.015-0.48-3.506-4.619 0.21-1.708 0.588-6.075 0.838-9.705 0.429-6.192 1.096-10.404 2.474-15.6 0.321-1.21 0.804-3.82 1.075-5.8s1.14-6.03 1.932-9c2.967-11.127 1.568-16.062-4.129-14.562m2.74 0.939c1.092 0.415 1.341 0.97 1.84 4.105 0.234 1.47 0.181 2.607-0.175 3.718-1.071 3.348-2.952 11.783-3.611 16.2-0.378 2.53-0.922 5.23-1.209 6-0.951 2.553-1.766 8.127-2.016 13.8-0.136 3.08-0.492 7.302-0.791 9.382-0.778 5.415-0.601 5.694 3.955 6.24 4.494 0.539 5.16 1.53 3.619 5.382-0.761 1.901-1.523 2.396-3.693 2.396-2.152 0-2.785 0.297-3.474 1.629-0.685 1.324-0.782 5.8-0.162 7.432 0.233 0.612 0.499 3.818 0.592 7.126 0.093 3.307 0.382 6.643 0.642 7.413 0.278 0.824 0.59 5.6 0.758 11.6 0.156 5.61 0.465 11.01 0.685 12 1.052 4.726 1.067 5.2 0.172 5.2-1.208 0-2.318-4.275-3.895-15-0.356-2.42-0.991-5.989-1.412-7.93-0.421-1.942-0.765-4.204-0.765-5.028 0-0.823-0.27-2.404-0.599-3.514-0.329-1.109-0.698-3.527-0.82-5.372-0.122-1.846-0.272-4.076-0.333-4.956-0.062-0.88-0.486-2.41-0.941-3.4-0.456-0.99-0.957-2.97-1.114-4.4-0.456-4.164-1.877-5.588-5.593-5.607-3.028-0.016-5.046-1.125-6.769-3.72l-1.467-2.209 0.818-1.526c0.916-1.708 1.013-2.37 0.403-2.747-0.595-0.368-4.37 3.706-5.24 5.656-1.257 2.816-2.729 3.299-3.541 1.163-0.235-0.617-0.697-1.01-1.186-1.01-1.117 0-1.497 1.715-0.662 2.989 1.341 2.047 0.883 3.637-1.887 6.55-3.654 3.841-4.269 4.859-4.269 7.064 0 1.66-0.207 2.11-1.773 3.852-0.975 1.084-2.9 3.676-4.277 5.758-3.737 5.651-4.642 4.017-1.35-2.435 1.886-3.696 2.161-5.297 1.2-6.978-0.861-1.506-0.72-2.641 0.545-4.387 0.629-0.869 1.369-2.122 1.643-2.783 0.49-1.184 0.686-1.304 2.938-1.807 1.312-0.293 2.126-1.885 2.337-4.571 0.196-2.501-0.686-2.987-2.67-1.474-2.509 1.914-3.243-2.939-0.871-5.758 0.683-0.812 1.078-1.754 1.078-2.572 0-0.958 0.37-1.647 1.433-2.67 0.789-0.758 2.165-2.623 3.057-4.145 0.893-1.523 2.922-4.763 4.508-7.2 1.587-2.438 4.877-7.763 7.311-11.833 6.307-10.542 10.12-15.875 14.79-20.685 0.934-0.962 1.965-2.264 2.29-2.894 0.76-1.469 2.913-2.79 5.98-3.668 2.979-0.853 2.769-0.833 3.971-0.376m-272 11.028c-0.405 0.578-1.392 1.837-2.194 2.798-1.421 1.704-2.55 6.123-1.765 6.907 0.643 0.643 4.808-3.933 6.053-6.651 1.376-3.002-0.358-5.532-2.094-3.054m0.123 3.573c-0.549 0.548-1.108 1.345-1.243 1.772-0.383 1.207-1.416 1.414-1.416 0.283 0-0.586 0.415-1.213 1.1-1.66 1.474-0.965 2.091-1.609 2.146-2.244 0.026-0.291 0.128-0.218 0.228 0.162 0.102 0.39-0.252 1.124-0.815 1.687m253.05 27.522c-0.86 1.375-2.174 3.58-2.919 4.9-0.746 1.32-1.768 3.01-2.272 3.756-1.094 1.618-1.177 2.789-0.217 3.086 0.385 0.119 1.69 0.638 2.9 1.152 8.248 3.506 7.682 3.956 7.524-5.98-0.111-6.94-0.202-7.818-0.886-8.573-1.37-1.512-2.407-1.096-4.13 1.659m3.43-0.276c0.686 1.506 0.717 13.371 0.035 13.792-0.567 0.351-4.915-1.093-6.582-2.185-1.531-1.003-1.582-1.605-0.299-3.509 0.639-0.947 1.755-2.802 2.48-4.122 2.651-4.823 3.59-5.678 4.366-3.976m-244.7 9.026c-0.088 0.303-0.283 1.36-0.433 2.35s-0.573 2.497-0.94 3.349-0.673 2.202-0.681 3c-0.028 2.788-1.305 7.058-2.217 7.408-0.864 0.331-0.707-1.445 0.475-5.357 0.564-1.87 1.266-4.705 1.558-6.301 0.605-3.302 1.407-5.37 1.996-5.15 0.221 0.083 0.33 0.398 0.242 0.701m-3.245 2.45c-0.01 1.527-0.462 2.7-1.042 2.7-0.679 0-0.696-0.546-0.073-2.272 0.552-1.526 1.123-1.745 1.115-0.428m220.8 4.1c0 0.33 0.27 0.6 0.6 0.6s0.6-0.27 0.6-0.6-0.27-0.6-0.6-0.6-0.6 0.27-0.6 0.6m-6.976 8.162c-0.38 0.613-1.824 0.549-1.824-0.082 0-0.286 0.217-0.737 0.483-1.003 0.589-0.589 1.779 0.375 1.341 1.085m-217.59 14.065c-0.375 2.831-1.665 6.014-2.048 5.054-0.631-1.585 0.821-7.081 1.871-7.081 0.305 0 0.361 0.642 0.177 2.027m-8.941 26.773c0 0.77 0.082 1.085 0.183 0.7 0.1-0.385 0.1-1.015 0-1.4-0.101-0.385-0.183-0.07-0.183 0.7m9.192-0.325c-0.675 0.675-0.625 2.725 0.066 2.725 0.826 0 1.527-1.04 1.38-2.047-0.156-1.059-0.774-1.35-1.446-0.678m-10.431 4.415c-0.641 1.209-0.493 2.033 0.278 1.554 0.3-0.186 0.474-0.823 0.4-1.458l-0.132-1.127-0.546 1.031m8.738 0.919c-0.256 0.309-0.637 1.964-0.846 3.677-0.208 1.712-0.732 4.066-1.163 5.229-0.43 1.163-0.784 2.783-0.784 3.6-1e-3 0.817-0.361 2.074-0.8 2.795-1.777 2.914-0.512 4.451 1.481 1.799 0.616-0.82 1.517-1.855 2.002-2.3 1.187-1.088 2.62-11.356 1.954-14.006-0.285-1.136-1.224-1.54-1.844-0.794m209.41 26.163c-7.62 2.718-21.45 13.869-26.599 21.446-7.367 10.841-15.848 31.102-18.192 43.461-0.344 1.814-0.802 3.952-1.017 4.751-0.422 1.567-0.952 5.86-1.626 13.17-0.422 4.583-0.028 9.268 1.281 15.2 0.218 0.99 0.732 3.6 1.143 5.8 0.788 4.231 2.235 9.919 2.79 10.972 0.182 0.345 0.73 2.068 1.219 3.828 1.761 6.348 7.444 18.175 12.012 25 0.809 1.21 2.306 3.46 3.326 5 1.019 1.54 2.122 3.19 2.452 3.667 0.329 0.477 1.174 0.993 1.877 1.147 0.807 0.178 2.1 1.128 3.506 2.577 1.226 1.263 2.579 2.42 3.008 2.571 1.06 0.373 10.076-4.151 11.694-5.868 1.813-1.924 5.976-8.319 6.301-9.68 0.156-0.652 0.612-1.912 1.013-2.8 2.919-6.456 1.625-8.672-5.375-9.199-8.671-0.654-15.359-8.202-18.976-21.415-4.319-15.781-4.553-26.176-1.021-45.4 0.323-1.76 0.587-4.342 0.586-5.738-3e-3 -3.64 3.276-14.239 6.214-20.086 3.852-7.669 12.146-17.348 13.61-15.884 0.517 0.518-2.369 11.33-5.422 20.308-1.631 4.799-2.771 9.317-3.215 12.748-0.227 1.756-0.95 4.271-1.785 6.217-1.725 4.016-1.738 4.817-0.136 8.796 1.19 2.958 1.243 3.298 0.828 5.277-1.085 5.17 3.882 12.13 11.267 15.79 8.564 4.243 16.202 1.983 27.356-8.097 2.354-2.127 5.7-5.045 7.433-6.484 1.734-1.439 3.562-3.218 4.063-3.955 1.463-2.154 4.585-5.188 7.385-7.178 5.46-3.882 5.744-7.224 0.825-9.702-5.206-2.621-10.632-1.294-20.709 5.064-2.814 1.776-6.061 3.735-7.216 4.355-1.155 0.619-3.045 1.744-4.2 2.5-2.302 1.505-4.854 2.468-5.492 2.074-1.139-0.704 0.644-8.45 4.408-19.153 0.455-1.292 0.987-3.092 1.184-4 0.197-0.909 0.743-3.362 1.213-5.452 0.469-2.09 0.942-4.25 1.05-4.8 0.381-1.938 5.003-16.243 6.361-19.691 0.757-1.92 1.376-3.74 1.376-4.044s0.54-1.564 1.2-2.801c1.67-3.129 1.581-3.899-0.665-5.737l-1.866-1.527-5.834-0.028c-6.279-0.031-7.594-0.356-11.129-2.758-1.81-1.23-4.494-1.317-7.506-0.242m7.007 1.363c3.336 2.238 6.948 3.235 9.895 2.73 6.808-1.167 11.52 1.479 9.309 5.227-0.435 0.736-1.223 2.591-1.753 4.123s-1.332 3.775-1.782 4.985c-1.664 4.471-5.277 16.316-6.1 20-1.862 8.333-2.638 11.163-4.771 17.4-0.902 2.64-1.797 5.52-1.988 6.4-0.19 0.88-0.625 2.857-0.966 4.393-1.282 5.778 1.113 6.548 7.56 2.432 1.4-0.894 3.861-2.39 5.467-3.324 1.607-0.935 4.542-2.721 6.522-3.969 8.762-5.524 14.227-6.934 18.511-4.777 4.47 2.251 4.285 4.608-0.639 8.122-2.798 1.996-7.127 6.27-7.491 7.394-0.119 0.369-2.143 2.286-4.499 4.261-2.355 1.975-5.838 5.003-7.74 6.729-12.263 11.13-21.577 11.961-31.094 2.774-4.55-4.392-5.606-6.996-4.461-10.991 0.331-1.153 0.185-1.84-1-4.702-1.544-3.73-1.682-4.981-0.742-6.742 1.245-2.335 2.555-6.236 2.555-7.612 0-1.874 1.671-8.754 3.203-13.188 3.097-8.968 5.589-18.103 5.594-20.513 0.013-5.935-11.537 5.531-16.59 16.47-3.088 6.686-6.31 17.256-5.949 19.516 0.13 0.812-0.051 3.153-0.403 5.202-2.248 13.109-2.787 18.985-2.434 26.525 0.199 4.248 0.625 7.168 2.244 15.4 2.133 10.846 7.172 19.919 12.919 23.26 1.109 0.645 2.496 1.549 3.082 2.009 0.771 0.605 2.042 0.942 4.6 1.221 5.031 0.548 5.251 0.611 5.987 1.734 0.704 1.076 0.447 2.701-0.884 5.576-0.306 0.66-0.798 2.01-1.093 3-1.521 5.094-6.498 10.572-11.952 13.154-4.516 2.138-5.054 2.118-7.054-0.27-0.943-1.127-2.416-2.297-3.574-2.839-1.595-0.747-2.253-1.392-3.453-3.384-0.816-1.354-2.375-3.711-3.466-5.239-2.193-3.074-6.735-11.176-8.868-15.822-3.295-7.175-6.953-19.096-7.73-25.192-0.154-1.205-0.539-2.915-0.857-3.8-0.577-1.605-1.146-5.513-1.576-10.808-1.667-20.575 12.562-59.153 26.927-73 12.316-11.873 21.979-16.922 26.534-13.865m-110.31 93.33c-0.275 0.111-0.5 0.437-0.5 0.724 0 0.288-2.768 3.126-6.151 6.308-5.62 5.285-7.849 6.934-7.849 5.807 0-0.436 8.261-8.464 9.754-9.479 0.465-0.316 1.636-1.261 2.602-2.1s1.956-1.511 2.2-1.493c0.266 0.019 0.244 0.112-0.056 0.233m-22.5 20.135c-1.19 1.1-2.293 2-2.451 2s-0.796 0.428-1.418 0.951c-2.397 2.016-5.583 3.356-5.11 2.149 0.211-0.537 1.369-1.338 6.379-4.413 1.76-1.08 3.26-2.126 3.333-2.325 0.074-0.199 0.426-0.362 0.782-0.362 0.397 0-0.193 0.778-1.515 2" fill="#712424"/>
<path d="m0 0.5c0 0.399 40.267 0.5 200 0.5s200-0.101 200-0.5-40.267-0.5-200-0.5-200 0.101-200 0.5" fill="#8c8c8c"/>
<path d="m100.5 1.1c54.725 0.056 144.28 0.056 199 0s9.95-0.102-99.5-0.102-154.22 0.046-99.5 0.102m95.7 149.5c-0.22 0.069-0.854 0.224-1.408 0.345-6.912 1.505 0.656 8.25 9.257 8.25 3.943 0 5.983 2.884 3.122 4.415-0.602 0.323-1.317 0.285-2.79-0.147-1.531-0.448-2.682-0.497-5.08-0.215-2.132 0.251-3.902 0.219-5.664-0.101-2.269-0.413-2.716-0.384-3.905 0.257-1.316 0.708-1.381 0.705-3.269-0.18-1.06-0.496-2.543-0.867-3.295-0.825s-1.593 0.059-1.868 0.037c-1.856-0.151 1.624-4.758 4.248-5.624 1.947-0.642 2.306-1.363 1.218-2.451-1.092-1.092-2.039-0.841-2.766 0.733-0.563 1.22-0.698 1.286-2.2 1.074-2.203-0.31-5.056 2.415-5.111 4.881-0.025 1.095-0.421 2.058-1.362 3.304-1.857 2.458-1.454 3.242 1.665 3.242 2.406 0 4.264 2.314 2.582 3.214-0.455 0.243-1.168 1.24-1.586 2.214-0.418 0.975-0.94 1.772-1.16 1.772-1.083 0-3.228 2.516-3.228 3.787 0 1.378-2.784 3.012-4.204 2.467-0.642-0.246-0.469-7.887 0.241-10.654 0.688-2.687 0.382-2.878-2.837-1.768-1.833 0.633-4.8 3.124-4.8 4.03 0 1-0.909 2.459-1.778 2.855-2.731 1.245-4.139 13.545-1.453 12.693 1.525-0.484 3.231 2.772 3.231 6.167 0 1.631-0.806 1.577-2.327-0.155-3.941-4.489-1.96 7.378 2.262 13.553 1.063 1.554 2.338 3.679 2.834 4.723 1.009 2.126 2.504 3.502 3.806 3.502 0.478 0 1.488 0.644 2.247 1.431 1.277 1.326 1.495 1.409 2.978 1.133 0.88-0.163 2.964-0.316 4.631-0.339 4.73-0.066 7.03-2.513 4.142-4.406l-1.027-0.673 0.127-6.709c0.095-5.003-3e-3 -6.866-0.383-7.326-0.28-0.339-0.672-1.763-0.872-3.164-0.456-3.209-1.353-6.711-2.044-7.974-1.321-2.419-0.849-6.031 1.891-14.477 0.34-1.046 0.519-2.161 0.398-2.476-0.156-0.406 0.327-0.745 1.659-1.165 1.033-0.326 2.658-0.881 3.611-1.234 1.347-0.497 2.061-0.549 3.2-0.233 3.015 0.838 4.833 0.55 6.241-0.988 1.445-1.577 2.917-1.825 3.964-0.669 1 1.106 0.857 1.425-1.683 3.735-2.221 2.021-3.653 4.062-3.657 5.214-1e-3 0.286-0.636 1.756-1.411 3.266-2.043 3.981-0.348 4.731 7.706 3.41 4.926-0.808 7.635 1.075 5.985 4.159-0.378 0.707-0.962 2.613-1.298 4.236-0.337 1.623-0.834 3.513-1.106 4.2-0.711 1.798-0.296 4.407 0.726 4.566 1.657 0.258 2.6 1.003 2.596 2.051-7e-3 1.776-1.838 5.148-3.269 6.018l-1.317 0.801-0.934-1.194c-1.439-1.838-4.116-1.061-7.676 2.229-0.77 0.711-2.132 1.659-3.027 2.106-3.335 1.667-3.837 3.301-1.892 6.152 1.86 2.727 2.141 2.881 5.703 3.12 2.778 0.186 2.999 0.269 3.217 1.197 0.59 2.517 3.177 2.255 9.799-0.993 9.927-4.87 13.484-7.151 17.561-11.26 0.826-0.833 3.039-6.52 3.039-7.81 0-0.353 0.255-1.518 0.567-2.588 1.953-6.702 1.964-6.775 1.659-11.436-0.162-2.481-0.348-5.427-0.412-6.547-0.065-1.121-0.341-2.453-0.612-2.96-0.272-0.508-0.635-2.053-0.806-3.434-0.21-1.697-0.634-2.942-1.307-3.84-0.548-0.731-1.118-1.73-1.267-2.22-0.364-1.201-2.882-4.187-4.064-4.821-0.524-0.281-1.338-1.271-1.807-2.2-1.285-2.541-5.615-7.178-7.827-8.382-2.44-1.328-14.495-3.47-16.324-2.901m9.74 1.764c4.901 0.865 7.207 1.902 9.018 4.054 1.956 2.324 1.21 2.998-1.645 1.485-2.361-1.25-3.258-0.459-1.336 1.178 0.72 0.613 1.695 1.547 2.166 2.076 2.379 2.671 3.205 3.288 4.102 3.062 0.513-0.128 1.037-0.015 1.207 0.26 0.486 0.787 0.868 7.63 0.484 8.664-0.225 0.605-0.18 1.426 0.124 2.267 0.396 1.095 0.349 1.781-0.277 4.052-1.484 5.383-0.801 10.133 1.457 10.133 2.148 0 2.572-1.388 1.586-5.193-1.032-3.98-0.765-4.807 1.555-4.807 1.326 0 1.604-0.155 1.908-1.067l0.355-1.066 0.878 0.942c0.618 0.663 0.878 1.445 0.878 2.64 0 0.935 0.184 2.183 0.409 2.776 0.692 1.819 0.948 6.751 0.427 8.23-0.261 0.74-0.631 2.581-0.824 4.093-0.224 1.761-0.826 3.699-1.679 5.4-0.986 1.967-1.33 3.181-1.331 4.699-2e-3 2.27-4.058 6.91-7.649 8.748-0.854 0.438-3.533 1.893-5.953 3.234-4.982 2.761-9.245 4.571-10.768 4.571-2.059 0-1.034-1.829 2.278-4.064 1.369-0.925 3.12-2.182 3.89-2.793s2.201-1.393 3.18-1.738c3.071-1.08 4.42-2.907 4.42-5.985 0-2.526-0.407-2.38-4.804 1.719-3.993 3.721-4.788 4.24-9.338 6.092-1.781 0.725-3.171 1.594-3.769 2.359-1.908 2.438-5.844 1.303-7.594-2.19-0.794-1.585 0.589-3.345 3.305-4.207 0.88-0.279 2.191-1.022 2.914-1.65 2-1.739 3.148-1.146 2.674 1.381-0.159 0.848-0.089 1.49 0.18 1.656 0.63 0.39 4.025-1.403 4.788-2.528 0.354-0.523 1.382-1.783 2.284-2.801s2.109-2.661 2.683-3.651 1.399-2.019 1.834-2.287c0.909-0.56 3.243-5.217 3.243-6.47 0-0.795-0.372-1.016-1.475-0.879-0.725 0.091-0.204-6.903 0.714-9.591 1.222-3.577 0.373-4.437-1.036-1.049-2.113 5.082-2.616 6.111-3.163 6.462-1.054 0.676-1.158-0.09-0.263-1.939 2.646-5.465 0.589-7.291-8.057-7.153-3.702 0.06-5.974-0.058-6.134-0.317-0.935-1.512 3.931-9.577 5.778-9.577 0.485 0 4.536-2.462 4.934-2.999 0.163-0.22-0.107-0.716-0.6-1.101-1.729-1.348-1.898-1.536-1.898-2.116 0-0.746 1.482-0.737 2.8 0.016 2.826 1.616 5.35 0.21 5.38-2.996 0.03-3.193-1.708-4.49-6.28-4.685-4.975-0.212-10.553-2.667-10.213-4.496 0.393-2.117 3.767-2.353 12.253-0.854m-20.829 11.854c1.753 1.227 0.666 3.042-2.159 3.607-0.928 0.185-1.479 0.011-2.39-0.755-0.651-0.548-1.579-1.059-2.063-1.135-1.388-0.221-0.497-1.097 1.734-1.705 2.707-0.737 3.839-0.74 4.878-0.012m7.689 2.201c0 0.207-0.36 0.376-0.8 0.376-0.882 0-1.089-0.63-0.3-0.913 0.605-0.217 1.1 0.025 1.1 0.537m33.146 4.897c0.398 1.047 0.448 1.645 0.162 1.931-0.625 0.625-2.108-1.174-2.108-2.557 0-1.675 1.219-1.283 1.946 0.626m-57.976-0.576c0.908 1.695-0.426 8.636-2.835 14.753-0.805 2.045-0.81 2.338-0.083 5.745 0.157 0.738 0.032 1.116-0.428 1.292-0.992 0.381-1.473-1.408-1.372-5.108 0.048-1.775-0.108-3.589-0.345-4.031-1.318-2.452 0.499-12.362 2.408-13.136 1.078-0.437 2.279-0.218 2.655 0.485m37.522 1.42c-0.772 0.772-0.258 2.809 0.812 3.22 0.86 0.33 3.407-2.171 2.952-2.899-0.533-0.854-3.019-1.066-3.764-0.321m18.108 2.665c0 0.84-0.156 1.085-0.585 0.92-0.673-0.258-1.18-1.56-0.828-2.129 0.46-0.744 1.413 0.072 1.413 1.209m-63.2 9.97c0 0.444-0.267 0.8-0.6 0.8-0.673 0-0.7-0.073-0.357-0.967s0.957-0.787 0.957 0.167m15.535 3.913c0.73 1.472 1.625 4.281 3.216 10.087 0.907 3.31 1.216 9.477 0.667 13.301l-0.33 2.302 1.224 0.426c2.592 0.904 1.606 2.375-1.586 2.366-1.792-6e-3 -6.028-1.175-7.867-2.173-0.583-0.316-1.729-0.682-2.548-0.814-2.711-0.437-4.598-4.802-3.114-7.202 0.522-0.846 0.763-1.703 0.611-2.18-0.137-0.432 6e-3 -1.29 0.318-1.906s0.683-1.763 0.825-2.549 0.706-2.036 1.254-2.777c0.647-0.878 0.995-1.879 0.995-2.864 0-0.832 0.255-2.192 0.566-3.022 0.311-0.829 0.676-2.009 0.811-2.62 0.624-2.839 3.623-3.065 4.958-0.375m-7.735 4.09c-0.287 2.082-1.047 2.91-1.894 2.063-0.459-0.459 0.644-3.568 1.471-4.144 0.648-0.451 0.721-0.089 0.423 2.081m42.129 5.759c0.276 2.329-1.865 3.05-2.9 0.977-1.224-2.455-0.799-3.293 1.305-2.569 1.139 0.393 1.495 0.747 1.595 1.592m-49.888 1.557c-0.321 0.321-0.438 0.122-0.429-0.739 0.011-1.034 0.065-1.089 0.442-0.441 0.307 0.529 0.304 0.863-0.013 1.18m53.559 9.25c0 1.358-1.888 3.504-2.949 3.352-1.352-0.194-1.236-1.416 0.278-2.93 1.65-1.65 2.671-1.812 2.671-0.422m-8.201 6.232c-0.722 1.169-6.599 3.377-6.599 2.479 0-0.374 2.354-1.28 3.328-1.28 0.37 0 0.672-0.152 0.672-0.339 0-0.382 1.526-1.193 2.324-1.234 0.288-0.015 0.412 0.153 0.275 0.374" fill="#234c68"/>
<path d="m194.2 150.24c-1.1 0.327-3.44 0.753-5.2 0.949-5.261 0.584-9.814 2.481-12.957 5.397-1.014 0.941-2.473 2.032-3.243 2.424-2.027 1.032-7.525 6.113-8.236 7.611-0.645 1.36-3.211 4.635-5.51 7.033-1.998 2.084-4.641 11.951-3.636 13.577 0.135 0.219 0.311 2.237 0.39 4.485 0.168 4.773 2.067 12.827 3.497 14.829 0.492 0.69 2.027 3.145 3.41 5.456 1.384 2.31 3.002 4.561 3.596 5.001s1.936 1.559 2.982 2.486c2.657 2.355 6.534 2.974 7.984 1.275 0.437-0.511 1.572-0.944 3.2-1.22 1.388-0.234 3.118-0.767 3.846-1.184 2.535-1.451 5.32 0.824 2.877 2.35-2.54 1.586-0.18 2.975 5.29 3.113 2.481 0.063 5.017 0.309 5.636 0.547 2.396 0.921 6.398-0.324 12.874-4.005 1.98-1.125 4.41-2.499 5.4-3.053 3.779-2.116 4.662-2.717 6.732-4.585 1.173-1.058 2.31-1.924 2.526-1.924 1.539 0 5.83-14.637 6.201-21.15 0.329-5.783-1.526-17.009-3.086-18.676-0.426-0.455-1.189-1.687-1.696-2.738-1.892-3.92-11.223-13.898-14.541-15.55-4.008-1.994-14.941-3.454-18.336-2.448m11.783 1.422c6.73 1.146 11.488 4.533 14.368 10.228 0.469 0.929 1.283 1.919 1.807 2.2 1.182 0.634 3.7 3.62 4.064 4.821 0.149 0.49 0.719 1.489 1.267 2.22 0.673 0.898 1.097 2.143 1.307 3.84 0.171 1.381 0.534 2.926 0.806 3.434 0.271 0.507 0.547 1.839 0.612 2.96 0.064 1.12 0.25 4.066 0.412 6.547 0.305 4.661 0.294 4.734-1.659 11.436-0.312 1.07-0.567 2.235-0.567 2.588 0 1.29-2.213 6.977-3.039 7.81-4.077 4.109-7.634 6.39-17.561 11.26-6.622 3.248-9.209 3.51-9.799 0.993-0.218-0.928-0.439-1.011-3.217-1.197-3.562-0.239-3.843-0.393-5.703-3.12-1.945-2.851-1.443-4.485 1.892-6.152 0.895-0.447 2.257-1.395 3.027-2.106 3.56-3.29 6.237-4.067 7.676-2.229l0.934 1.194 1.317-0.801c1.431-0.87 3.262-4.242 3.269-6.018 4e-3 -1.048-0.939-1.793-2.596-2.051-1.022-0.159-1.437-2.768-0.726-4.566 0.272-0.687 0.769-2.577 1.106-4.2 0.336-1.623 0.92-3.529 1.298-4.236 1.65-3.084-1.059-4.967-5.985-4.159-8.054 1.321-9.749 0.571-7.706-3.41 0.775-1.51 1.41-2.98 1.411-3.266 4e-3 -1.152 1.436-3.193 3.657-5.214 2.54-2.31 2.683-2.629 1.683-3.735-1.047-1.156-2.519-0.908-3.964 0.669-1.408 1.538-3.226 1.826-6.241 0.988-1.139-0.316-1.853-0.264-3.2 0.233-0.953 0.353-2.578 0.908-3.611 1.234-1.332 0.42-1.815 0.759-1.659 1.165 0.121 0.315-0.058 1.43-0.398 2.476-2.74 8.446-3.212 12.058-1.891 14.477 0.691 1.263 1.588 4.765 2.044 7.974 0.2 1.401 0.592 2.825 0.872 3.164 0.38 0.46 0.478 2.323 0.383 7.326l-0.127 6.709 1.027 0.673c2.888 1.893 0.588 4.34-4.142 4.406-1.667 0.023-3.751 0.176-4.631 0.339-1.483 0.276-1.701 0.193-2.978-1.133-0.759-0.787-1.769-1.431-2.247-1.431-1.302 0-2.797-1.376-3.806-3.502-0.496-1.044-1.771-3.169-2.834-4.723-4.222-6.175-6.203-18.042-2.262-13.553 1.521 1.732 2.327 1.786 2.327 0.155 0-3.395-1.706-6.651-3.231-6.167-2.686 0.852-1.278-11.448 1.453-12.693 0.869-0.396 1.778-1.855 1.778-2.855 0-0.906 2.967-3.397 4.8-4.03 3.219-1.11 3.525-0.919 2.837 1.768-0.71 2.767-0.883 10.408-0.241 10.654 1.42 0.545 4.204-1.089 4.204-2.467 0-1.271 2.145-3.787 3.228-3.787 0.22 0 0.742-0.797 1.16-1.772 0.418-0.974 1.131-1.971 1.586-2.214 1.682-0.9-0.176-3.214-2.582-3.214-3.119 0-3.522-0.784-1.665-3.242 0.941-1.246 1.337-2.209 1.362-3.304 0.055-2.466 2.908-5.191 5.111-4.881 1.502 0.212 1.637 0.146 2.2-1.074 0.727-1.574 1.674-1.825 2.766-0.733 1.088 1.088 0.729 1.809-1.218 2.451-2.624 0.866-6.104 5.473-4.248 5.624 0.275 0.022 1.116 5e-3 1.868-0.037s2.235 0.329 3.295 0.825c1.888 0.885 1.953 0.888 3.269 0.18 1.189-0.641 1.636-0.67 3.905-0.257 1.762 0.32 3.532 0.352 5.664 0.101 2.398-0.282 3.549-0.233 5.08 0.215 1.473 0.432 2.188 0.47 2.79 0.147 2.861-1.531 0.821-4.415-3.122-4.415-8.601 0-16.169-6.745-9.257-8.25 0.554-0.121 1.188-0.276 1.408-0.345 0.703-0.218 5.061 0.251 9.783 1.055m-15.787 6.734c0.344 0.556-2.178 2.003-3.496 2.005-1.516 2e-3 -1.406-0.948 0.2-1.74 1.478-0.729 2.937-0.846 3.296-0.265m-16.824 11.161c0.388 0.627-0.674 4.909-1.275 5.14-1.276 0.49-1.588-2.656-0.47-4.745 0.42-0.786 1.371-1.001 1.745-0.395m48.815 4.066c-0.352 0.569 0.155 1.871 0.828 2.129 0.429 0.165 0.585-0.08 0.585-0.92 0-1.137-0.953-1.953-1.413-1.209m-31.47 3.979c0.168 1.437-0.868 2.724-1.755 2.181-1.084-0.664-1.431-2.055-0.695-2.791 0.938-0.938 2.309-0.597 2.45 0.61m13.249 6.737c0.275 0.513 0.21 1.396-0.213 2.9-0.335 1.19-0.755 2.703-0.934 3.363-0.847 3.129-1.437 3.903-3.319 4.352-0.931 0.223-1.1 0.471-1.1 1.612 0 1.11-0.179 1.394-1.014 1.604-0.57 0.143-1.224 0.731-1.494 1.343-0.264 0.599-1.238 2.13-2.163 3.402-1.656 2.276-1.814 2.603-2.297 4.775-0.389 1.752-1.353 1.979-3.741 0.881-2.506-1.152-2.871-2.908-1.135-5.466 0.526-0.775 1.054-2.195 1.174-3.156s0.341-2.334 0.49-3.051c0.174-0.831 0.089-1.523-0.232-1.91-0.437-0.528-0.587-1.887-0.828-7.534-0.08-1.853 1.938-3.623 3.466-3.041 1.246 0.475 8.083 0.162 9.574-0.438 1.487-0.599 3.347-0.419 3.766 0.364m-44.523 0.296c-0.343 0.894-0.316 0.967 0.357 0.967 0.333 0 0.6-0.356 0.6-0.8 0-0.954-0.614-1.061-0.957-0.167m8.334 6.089c-0.827 0.576-1.93 3.685-1.471 4.144 0.847 0.847 1.607 0.019 1.894-2.063 0.298-2.17 0.225-2.532-0.423-2.081m39.257 5.977c-0.782 0.782 0.632 4.101 1.746 4.101 2.186 0 2.149-3.074-0.046-3.83-0.806-0.277-1.571-0.399-1.7-0.271m4.295 13.092c-1.514 1.514-1.63 2.736-0.278 2.93 1.061 0.152 2.949-1.994 2.949-3.352 0-1.39-1.021-1.228-2.671 0.422m-7.229 5.897c-0.495 0.239-0.9 0.587-0.9 0.773 0 0.187-0.302 0.339-0.672 0.339-0.974 0-3.328 0.906-3.328 1.28 0 0.898 5.877-1.31 6.599-2.479 0.318-0.515-0.543-0.47-1.699 0.087" fill="#1c3e54"/>
<path d="m0.2 1.6c0.343 0.555 399.26 0.555 399.6 0 0.165-0.266-66.537-0.4-199.8-0.4s-199.96 0.134-199.8 0.4m126.2 34.735c-7.344 1.978-14.955 8.205-25.228 20.641-2.071 2.506-4.231 4.92-6.465 7.224-2.16 2.227-3.686 4.212-7.996 10.4-0.919 1.32-2.099 2.85-2.622 3.4s-2.236 2.8-3.807 5c-1.57 2.2-3.851 5.094-5.069 6.432-2.318 2.548-2.648 2.918-8.879 9.984-2.126 2.411-4.418 4.792-5.093 5.29-0.674 0.499-2.847 3.053-4.828 5.677-2.988 3.957-4.265 5.267-7.496 7.693-2.142 1.608-4.41 3.464-5.041 4.124s-1.986 1.652-3.011 2.204c-2.747 1.478-3.372 2.933-3.122 7.264l0.201 3.468-3.182 3.812c-1.75 2.096-3.704 4.184-4.344 4.639-0.639 0.455-1.572 1.499-2.073 2.32s-1.594 2.364-2.428 3.429c-1.267 1.617-1.517 2.246-1.517 3.82 0 1.481-0.434 2.727-2.023 5.81l-2.023 3.925 0.171 4.654c0.257 7.003 0.559 8.146 2.924 11.068 0.718 0.887 1.662 2.417 2.098 3.4 3.362 7.576 17.901 13.126 23.853 9.106 0.88-0.594 2.5-1.277 3.6-1.518s2.99-0.949 4.2-1.573 3.37-1.428 4.8-1.786c4.137-1.036 4.997-2.383 3.6-5.642-0.44-1.026-0.8-2.409-0.8-3.071 0-0.663-0.386-1.748-0.859-2.411-0.78-1.096-0.816-1.386-0.4-3.192 0.253-1.093 0.462-2.828 0.465-3.857 8e-3 -2.392 0.371-3.359 4.106-10.919 1.699-3.437 3.088-6.541 3.088-6.898s0.65-2.044 1.445-3.75 1.985-4.722 2.644-6.702c1.175-3.529 2.948-7.417 4.651-10.2 0.471-0.77 0.858-1.629 0.859-1.909 0-0.279 0.721-2.052 1.601-3.939s1.6-3.675 1.6-3.973c0-0.879 0.864-2.59 2.893-5.73 1.697-2.626 1.907-3.199 1.911-5.2 5e-3 -2.363 0.398-3.061 4.671-8.289 0.701-0.858 2.417-3.09 3.813-4.96 8.238-11.031 10.312-12.989 10.312-9.731 0 1.028 1.174 2.869 1.996 3.13 1.05 0.333 1.014 1.17-0.196 4.526-0.55 1.524-1.002 3.38-1.005 4.123-2e-3 0.744-0.287 2.342-0.632 3.552-0.344 1.21-0.769 2.88-0.943 3.711-0.174 0.832-0.575 1.822-0.891 2.2-0.799 0.958-1.529 2.763-1.529 3.779 0 0.469-0.177 1.406-0.393 2.082-0.217 0.675-0.94 3.568-1.609 6.428-0.668 2.86-1.571 6.46-2.005 8-1.562 5.532-4.793 19.223-4.793 20.307 0 0.609-0.52 2.679-1.156 4.6-1.352 4.086-2.101 7.601-2.251 10.569-0.231 4.573-0.956 9.5-1.961 13.324-0.785 2.99-0.989 4.51-0.805 6.021 0.191 1.575 0.105 2.137-0.391 2.549-0.87 0.722-0.849 3.76 0.032 4.641 0.672 0.672 2.019-0.335 2.157-1.611 0.024-0.22 0.201 0.127 0.394 0.771 0.292 0.979 0.062 1.766-1.407 4.8-3.117 6.436-5.534 16.484-6.021 25.029-0.131 2.31-0.483 5.46-0.781 7-0.645 3.336-1.301 8.715-1.634 13.4-0.133 1.87-0.424 4.3-0.646 5.4-0.223 1.1-0.562 4.34-0.755 7.2-0.52 7.723-0.597 8.011-2.757 10.182-1.835 1.844-1.898 1.99-2.41 5.559-0.611 4.266-0.33 22.812 0.417 27.459 0.247 1.54 0.422 3.205 0.389 3.7-0.679 10.081 6.194 25.836 15.755 36.113 1.337 1.437 3.511 3.796 4.831 5.242 3.405 3.73 12.898 10.332 14.878 10.347 0.177 2e-3 0.837 0.272 1.467 0.6 0.629 0.328 2.32 0.785 3.758 1.014 1.437 0.23 2.972 0.61 3.411 0.845 1.131 0.605 4.592 0.063 6.282-0.985 1.25-0.775 2.018-0.878 7.004-0.939 5.691-0.069 6.389-0.192 15.6-2.73 3.491-0.962 7.705-3.068 18.798-9.392 0.879-0.501 2.32-1.408 3.203-2.016 0.883-0.607 3.244-1.932 5.247-2.943 2.002-1.012 3.877-2.124 4.166-2.473 0.289-0.348 1.439-1.24 2.556-1.983 1.116-0.742 2.837-2.198 3.822-3.234 0.986-1.036 2.363-2.122 3.061-2.414 1.273-0.532 2.23-1.555 3.883-4.152 0.547-0.858 1.423-1.573 2.265-1.848 0.889-0.291 1.718-0.996 2.352-2 1.221-1.935 1.972-2.523 3.247-2.541 1.178-0.017 3.53-1.362 3.853-2.205 0.125-0.324 0.817-0.955 1.54-1.401 1.34-0.829 2.435-2.748 2.102-3.685-0.585-1.644 2.905-5.206 4.069-4.152 0.951 0.86 2.113 0.569 3.187-0.796 0.745-0.948 0.747-2.572 2e-3 -2.572-1.102 0 0.371-1.869 6.863-8.708 9.78-10.302 12.529-14.716 9.521-15.289l-1.064-0.203 0.611-1.8c0.672-1.982 2.203-4.348 5.566-8.6 1.218-1.54 2.634-3.446 3.147-4.236s1.173-1.694 1.468-2.01c0.294-0.315 1.52-1.739 2.725-3.164 1.204-1.424 2.287-2.68 2.407-2.79 1.665-1.526 6.604-7.679 11.522-14.352 1.035-1.404 2.533-3.294 3.329-4.2 3.3-3.754 7.213-9.414 8.182-11.835 1.542-3.849 3.73-7.379 7.234-11.668 7.067-8.65 13.518-17.685 21.524-30.145 2.698-4.2 3.211-5.48 2.631-6.564-0.761-1.422-4.162-0.705-5.619 1.185-0.11 0.143-0.593 0.466-1.074 0.719-3.06 1.611-2.314-2.462 1.351-7.378 0.625-0.838 0.923-1.786 0.923-2.938 0-2.183 0.775-3.32 5.344-7.84 5.871-5.807 7.643-9.421 5.427-11.069-1.834-1.364-3.212-0.564-9.796 5.687-2.518 2.391-6.781 7.414-10.521 12.398-1.569 2.09-2.992 3.98-3.164 4.2-0.171 0.22-0.749 1.03-1.283 1.8-0.535 0.77-2.06 2.764-3.389 4.431-1.33 1.668-2.868 3.629-3.418 4.359-2.138 2.836-7.599 9.654-9.844 12.287-1.296 1.521-2.862 3.386-3.479 4.144-0.618 0.758-2.868 3.522-5 6.141-8.378 10.293-14.613 17.433-16.285 18.65-0.444 0.323-1.43 1.398-2.19 2.388s-4.142 4.79-7.516 8.444c-3.373 3.655-6.433 7.075-6.8 7.6-0.366 0.526-1.751 2.061-3.076 3.412-2.795 2.847-5.707 6.144-8.429 9.544-1.057 1.32-2.925 3.48-4.152 4.8-1.226 1.32-3.189 3.518-4.363 4.884-2.226 2.592-3.13 3.13-4.967 2.958-1.909-0.178-6.299 4.743-6.299 7.062 0 1.331-0.516 1.962-6.637 8.122-7.409 7.455-8.084 7.966-9.515 7.2-1.334-0.714-2.227-0.317-4.909 2.186-1.286 1.2-2.555 2.183-2.819 2.185-0.263 2e-3 -0.961 0.635-1.55 1.406-0.588 0.772-1.903 1.771-2.92 2.221-1.018 0.449-4.28 2.412-7.25 4.363-14.449 9.488-23.605 13.604-30.274 13.61-1.801 2e-3 -3.778 0.195-4.394 0.429-4.821 1.833-8.68 0.529-10.69-3.613-1.118-2.305-1.418-2.625-2.756-2.941-2.32-0.549-3.29-2.503-6.581-13.272-3.919-12.823-4.263-36.381-0.854-58.4 0.238-1.54 0.579-4.15 0.757-5.8 0.547-5.064 1.232-9.668 1.871-12.575 0.35-1.589 0.648-5.18 0.699-8.4 0.101-6.44 0.798-13.177 1.642-15.879 0.319-1.019 0.58-2.572 0.58-3.451 0-0.878 0.27-2.244 0.6-3.033 0.33-0.79 0.6-1.886 0.6-2.435 0-0.55 0.294-1.86 0.652-2.913 0.359-1.053 0.708-2.994 0.775-4.314 0.068-1.32 0.286-3.034 0.485-3.809 0.199-0.774 0.239-1.762 0.087-2.193-0.337-0.962-0.088-2.027 0.612-2.607 0.384-0.319 0.465-1.212 0.304-3.349-0.18-2.369-0.061-3.339 0.632-5.193 0.469-1.253 0.853-2.718 0.853-3.256 0-1.495 1.509-6.07 3.05-9.245 0.762-1.568 1.487-3.548 1.612-4.4 0.125-0.851 0.479-2.325 0.787-3.275s0.823-3.605 1.146-5.899c0.322-2.295 0.842-4.577 1.156-5.073s0.701-1.531 0.859-2.301c0.159-0.77 0.596-1.85 0.97-2.4s0.913-1.63 1.197-2.4 0.752-1.94 1.04-2.6c0.287-0.66 0.882-2.55 1.322-4.2 1.378-5.164 2.728-9.028 4.235-12.119 1.514-3.106 1.698-3.615 3.218-8.881 0.508-1.76 1.114-3.74 1.347-4.4 0.232-0.66 0.724-2.28 1.093-3.6 0.575-2.055 1.846-5.364 3.994-10.4 2.067-4.847 4.167-11.065 4.185-12.395 7e-3 -0.443 0.545-2.875 1.197-5.405 2.052-7.958 0.898-12.083-2.632-9.413-1.135 0.859-1.519 0.752-2.113-0.589-0.292-0.661-1.356-1.876-2.364-2.7s-2.657-2.348-3.666-3.386c-2.44-2.513-6.782-3.945-9.633-3.177m5.6 1.345c1.961 0.578 9.6 7.802 9.6 9.078 0 1.449 1.103 1.864 2.401 0.905 3.111-2.3 3.777 0.757 1.859 8.537-0.543 2.2-1.259 5.189-1.593 6.642s-2.141 6.493-4.017 11.2c-1.875 4.707-3.684 9.548-4.018 10.758-1.982 7.169-3.688 12.252-5.237 15.6-1.656 3.58-3.053 7.633-4.205 12.2-0.599 2.374-1.624 5.113-3.145 8.4-2.356 5.091-2.969 6.901-3.319 9.8-0.325 2.694-0.648 4.194-2.35 10.907-0.266 1.048-1.028 2.758-1.694 3.8-0.666 1.041-1.346 2.523-1.511 3.293-0.164 0.77-0.515 2.48-0.779 3.8-0.263 1.32-0.805 3.48-1.203 4.8s-1.016 3.729-1.373 5.353c-0.357 1.625-0.912 3.582-1.233 4.349-0.701 1.679-0.752 4.654-0.12 7.018 0.384 1.434 0.349 2.064-0.2 3.677-0.365 1.07-0.663 2.549-0.663 3.287s-0.27 1.988-0.6 2.778c-0.33 0.789-0.6 2.032-0.6 2.761s-0.21 1.832-0.467 2.451c-0.643 1.551-1.083 6.109-1.496 15.526-0.193 4.4-0.619 9.26-0.946 10.8s-0.893 4.96-1.258 7.6-0.853 6.06-1.086 7.6-0.579 4.6-0.77 6.8c-0.19 2.2-0.519 5.26-0.731 6.8-1.931 14.04-1.202 39.362 1.326 46.107 0.308 0.821 1.318 3.828 2.245 6.682 2.241 6.901 3.792 9.411 5.814 9.411 0.684 0 1.175 0.595 2.224 2.696 2.218 4.446 5.445 5.453 11.712 3.656 0.675-0.193 2.489-0.355 4.03-0.358 5.75-0.013 17.263-4.751 26.176-10.772 5.442-3.676 9.463-6.161 11.668-7.21 1.453-0.691 3.034-1.787 3.512-2.435 0.479-0.647 1.098-1.177 1.377-1.177 0.278 0 1.178-0.71 1.999-1.577 1.775-1.873 2.833-2.286 4.108-1.603 1.37 0.733 2.7-0.321 11.263-8.93 6.229-6.262 7.3-7.516 7.3-8.545 0-1.405 1.591-3.194 2.253-2.532 0.276 0.276 0.802 0.05 1.636-0.703 0.676-0.61 1.688-1.426 2.249-1.813 1.091-0.751 7.496-7.802 12.001-13.209 1.507-1.808 3.577-4.206 4.6-5.327 1.024-1.121 3.751-4.168 6.061-6.77 4.263-4.803 11.167-12.324 17.929-19.532 3.892-4.15 7.54-8.388 12.271-14.258 1.54-1.911 4.297-5.258 6.127-7.437 8.823-10.51 10.368-12.377 11.675-14.105 0.773-1.022 3.122-4.019 5.22-6.659 2.097-2.64 5.474-7.05 7.503-9.8 11.533-15.632 20.2-24.115 22.395-21.92 1.254 1.254-1.19 5.173-6.589 10.568-3.965 3.962-4.921 5.485-4.929 7.851-1e-3 0.385-0.902 2.32-2.002 4.301-1.308 2.356-2 4.075-2 4.97 0 0.852-0.356 1.795-0.944 2.499-0.836 1-2.823 3.888-5.568 8.09-0.488 0.748-1.745 2.218-2.791 3.268-1.19 1.192-2.003 2.407-2.167 3.24-0.177 0.896-1.028 2.084-2.597 3.623-1.694 1.663-2.333 2.584-2.333 3.362 0 0.775-0.555 1.583-2 2.911-1.822 1.676-2.705 3.637-1.636 3.637 0.634 0 3.567-3.304 9.684-10.911 0.668-0.83 2.332-2.99 3.697-4.8 1.365-1.809 3.423-4.486 4.574-5.949 1.15-1.463 2.706-3.682 3.458-4.93 2.709-4.498 8.384-6.958 6.943-3.01-0.673 1.845-9.844 15.839-14.287 21.8-6.669 8.948-9.233 12.276-10.809 14.026-1.548 1.72-3.379 4.979-6.738 11.997-0.321 0.672-1.508 2.417-2.635 3.876-12.23 15.824-15.396 19.784-20.586 25.749-2.275 2.614-5.083 6.102-6.241 7.752s-2.948 3.986-3.977 5.191c-1.03 1.205-2.601 3.635-3.492 5.4-2.23 4.416-2.78 5.083-10.567 12.809-5.628 5.584-10.188 10.953-10.188 11.995 0 0.703 1.284-0.436 6.419-5.695 8.356-8.556 13.709-13.689 14.281-13.695 1.979-0.02-2.938 6.141-13.885 17.395-3.638 3.741-7.632 7.881-8.875 9.2-1.243 1.32-2.998 3.069-3.9 3.888-1.199 1.087-1.64 1.798-1.64 2.644 0 0.983-0.135 1.132-0.9 0.989-1.133-0.211-2.934 1.104-5.068 3.7-0.895 1.089-2.459 2.519-3.478 3.179-1.267 0.822-1.993 1.634-2.302 2.576-0.307 0.935-1.104 1.834-2.484 2.8-1.117 0.783-2.557 2.019-3.2 2.747-1.941 2.197-6.555 5.538-10.368 7.505-1.98 1.022-4.188 2.3-4.907 2.841-1.482 1.114-3.886 2.516-11.893 6.935-9.04 4.991-17.222 7.287-26.2 7.355-4.754 0.036-5.567 0.143-6.8 0.89-1.717 1.041-4.394 1.486-5.778 0.959-0.568-0.216-2.069-0.559-3.335-0.763-9.453-1.522-21.489-11.327-30.744-25.045-5.106-7.568-10.313-21.881-9.404-25.85 0.269-1.176 0.291-2.343 0.06-3.2-1.062-3.938-1.556-22.234-0.781-28.95 0.409-3.55 0.439-3.622 2.171-5.2 2.321-2.113 2.547-2.842 3.02-9.734 0.222-3.226 0.587-7.216 0.81-8.866 0.224-1.65 0.672-5.752 0.996-9.116 0.323-3.365 0.768-6.875 0.988-7.8 0.219-0.926 0.576-4.03 0.792-6.897 0.417-5.53 1.593-12.942 2.632-16.587 0.345-1.21 0.901-3.19 1.236-4.4 0.336-1.21 1.403-3.658 2.373-5.441 1.256-2.307 1.764-3.704 1.764-4.849 0-0.992 0.402-2.328 1.047-3.482 1.015-1.816 1.302-3.138 2.742-12.609 0.73-4.806-0.753-6.767-2.13-2.816-0.744 2.134-1.547 2.61-1.731 1.027-0.438-3.747 0.94-13.986 2.514-18.689 0.637-1.902 1.158-3.913 1.158-4.468 0-1.021 0.745-4.419 1.769-8.073 0.309-1.1 0.863-3.44 1.233-5.2 0.369-1.76 1.088-4.64 1.598-6.4 1.198-4.136 4.202-16.609 4.201-17.44-1e-3 -0.353 0.469-1.523 1.044-2.6 1.236-2.318 2.092-5.328 2.584-9.093 0.196-1.502 0.826-4.022 1.398-5.6 2.473-6.812 2.751-11.852 0.468-8.493-1.033 1.52-1.469 1.44-2.436-0.449-1.428-2.787-1.583-2.642-12.843 12.075-1.684 2.2-4.086 5.336-5.338 6.969-2.127 2.771-2.272 3.099-2.192 4.946 0.093 2.129-0.348 3.242-2.471 6.233-0.723 1.018-1.541 2.572-1.818 3.452-0.714 2.267-3.459 8.831-4.683 11.2-2.509 4.856-3.289 6.619-4.425 10-0.665 1.98-1.829 4.95-2.586 6.6-0.758 1.65-1.509 3.54-1.668 4.2-0.16 0.66-1.739 4.17-3.509 7.8-1.853 3.8-3.287 7.279-3.381 8.2-0.089 0.88-0.365 3.066-0.612 4.859-0.422 3.06-0.397 3.343 0.409 4.647 0.472 0.764 0.858 1.84 0.858 2.392 0 0.553 0.28 1.675 0.623 2.494 1.29 3.089 0.552 4.033-4.1 5.245-1.253 0.326-2.863 0.955-3.579 1.398-0.716 0.442-2.601 1.164-4.189 1.604s-3.442 1.196-4.121 1.681c-1.06 0.756-1.742 0.877-4.834 0.856-7.913-0.052-14.344-3.74-17.543-10.061-0.581-1.147-1.621-2.73-2.313-3.517-1.646-1.875-2.444-4.963-2.636-10.2l-0.154-4.203 2.023-3.95c1.477-2.883 2.023-4.401 2.023-5.619 0-1.657 0.113-1.878 3.6-7.044 0.55-0.815 1.994-2.449 3.209-3.632 2.29-2.228 4.338-4.489 5.926-6.54 0.852-1.1 0.901-1.436 0.65-4.449-0.344-4.136 0.291-5.73 2.747-6.892 0.917-0.434 2.218-1.393 2.891-2.129 0.673-0.737 2.113-2.006 3.2-2.821 5.209-3.903 6.291-4.956 9.542-9.284 1.918-2.553 4.115-5.136 4.882-5.739 0.768-0.603 3.588-3.616 6.268-6.696 2.679-3.08 5.969-6.77 7.311-8.2 1.341-1.43 3.59-4.22 4.995-6.2 1.406-1.98 3.293-4.5 4.194-5.6 1.502-1.835 3.697-4.807 6.785-9.187 0.66-0.936 2.852-3.482 4.87-5.658 2.018-2.175 4.358-4.801 5.2-5.836 8.276-10.171 15.084-16.677 18.53-17.709 0.55-0.165 1.971-0.847 3.158-1.517 3.371-1.903 5.138-2.105 8.842-1.013m233 29.327c-0.88 0.319-1.977 0.584-2.438 0.587-1.196 9e-3 -5.636 2.98-5.955 3.985-0.148 0.464-1.109 1.701-2.138 2.747-3.555 3.62-8.941 10.789-12.208 16.251-0.914 1.527-2.111 3.518-2.661 4.423s-1.784 2.986-2.742 4.623c-0.957 1.637-3.252 5.271-5.1 8.074-1.847 2.804-3.358 5.204-3.358 5.333 0 0.615-3.106 4.899-4.278 5.899-0.727 0.621-1.322 1.449-1.322 1.841 0 0.391-0.477 1.593-1.061 2.67-0.691 1.276-1.144 2.867-1.3 4.56l-0.239 2.6-1.855 0.213c-2.11 0.243-2.863 0.741-3.52 2.327-1.019 2.461 0.924 4.302 4.018 3.807l1.589-0.254-0.505 1.153c-0.278 0.635-1.05 1.847-1.715 2.693-1.27 1.617-1.614 4.619-0.641 5.592 0.859 0.859 0.409 2.941-1.407 6.499-3.089 6.053-3.186 10.57-0.226 10.57 2.066 0 2.746-0.613 4.013-3.617 1.115-2.643 4.903-8.384 6.462-9.795 1.351-1.223 2.093-2.957 1.829-4.276-0.286-1.431 1.066-3.547 4.122-6.453 1.123-1.068 2.147-2.418 2.276-3 0.129-0.583 0.318-1.368 0.42-1.746s0.894-1.085 1.759-1.571c0.865-0.487 1.676-1.211 1.803-1.611 0.636-2.003 3.378-1.83 3.378 0.213 0 0.222 0.391 0.82 0.868 1.329 0.767 0.815 0.807 1.039 0.347 1.899-1.046 1.954 0.874 3.179 2.143 1.367 0.534-0.763 0.937-0.852 3.523-0.78 3.72 0.103 4.079 0.465 4.648 4.689 0.248 1.843 0.791 3.848 1.255 4.635 0.45 0.762 0.807 1.821 0.795 2.352-0.082 3.419 0.398 8.768 0.861 9.594 0.299 0.534 0.656 2.321 0.793 3.971s0.643 4.98 1.124 7.4 1.123 6.11 1.427 8.2c1.41 9.692 2.602 13.679 4.428 14.808 3.705 2.289 4.688-0.627 2.835-8.408-0.453-1.904-0.623-4.847-0.633-11-0.011-6.071-0.19-9.232-0.646-11.4-0.347-1.65-0.695-5.432-0.773-8.404s-0.334-5.908-0.568-6.526c-0.58-1.525-0.544-5.993 0.053-6.59 0.264-0.264 1.137-0.48 1.94-0.48 3.819 0 5.588-2.19 5.571-6.896-0.013-3.617-0.567-4.18-4.691-4.763-3.826-0.54-3.468 0.413-2.909-7.741 0.78-11.397 1.397-15.802 2.853-20.378 0.416-1.307 0.756-2.917 0.756-3.576 0-2.137 1.562-10.028 2.86-14.446 2.722-9.268 0.029-15.332-5.86-13.193m5.256 2.023c1.197 1.826 0.901 7.264-0.727 13.37-0.792 2.97-1.661 7.02-1.932 9s-0.754 4.59-1.075 5.8c-1.378 5.196-2.045 9.408-2.474 15.6-0.25 3.63-0.628 7.997-0.838 9.705-0.509 4.139-0.556 4.076 3.506 4.619 4.101 0.548 4.484 0.894 4.483 4.052-1e-3 4.108-1.669 6.007-5.285 6.018-2.454 8e-3 -2.844 0.697-2.57 4.537 0.113 1.578 0.392 5.839 0.621 9.469s0.629 7.5 0.89 8.6c0.275 1.163 0.509 5.769 0.558 11 0.071 7.594 0.221 9.611 0.96 12.912 1.079 4.818 1.003 6.435-0.312 6.621-2.176 0.308-3.293-2.004-4.605-9.533-0.365-2.09-1.228-6.95-1.918-10.8s-1.385-8.26-1.544-9.8-0.5-3.325-0.757-3.967c-0.257-0.641-0.558-3.338-0.668-5.993-0.16-3.864-0.36-5.097-1.002-6.185-0.447-0.758-0.995-2.796-1.238-4.607-0.565-4.193-1.062-4.737-4.624-5.065-3.67-0.337-5.395-1.25-7.435-3.933-1.961-2.581-2.975-2.86-3.818-1.05-0.8 1.719-1.651 2.589-3.144 3.213-1.138 0.475-1.308 0.735-1.308 2.005 0 1.245-0.372 1.852-2.527 4.121-3.911 4.117-4.273 4.704-4.273 6.924 0 1.701-0.197 2.174-1.523 3.646-2.259 2.509-4.389 5.58-6.234 8.988-0.904 1.669-1.934 3.213-2.289 3.432-2.848 1.756-2.682-4.001 0.277-9.642l1.948-3.712-0.69-1.941c-1.012-2.852-0.878-3.987 0.71-5.984 1.171-1.473 2.19-3.767 2.199-4.95 4e-3 -0.509-1.41-0.332-2.773 0.348-1.801 0.898-3.225 0.262-3.225-1.439 0-1.893 1.259-2.869 3.518-2.727l1.882 0.118 0.217-3.059c0.175-2.454 0.432-3.368 1.3-4.622 0.596-0.859 1.083-2.01 1.083-2.558 0-0.63 0.552-1.524 1.5-2.43 0.825-0.788 2.118-2.49 2.874-3.782s2.571-4.149 4.033-6.349 4.518-7.15 6.79-11c6.617-11.21 11.251-17.788 15.926-22.605 0.857-0.883 1.858-2.186 2.225-2.895 0.739-1.428 4.389-4.09 5.647-4.118 0.443-9e-3 1.705-0.254 2.805-0.544 2.351-0.619 3.922-0.234 4.856 1.192m-273.41 12.499c-0.055 0.635-0.672 1.279-2.146 2.244-0.685 0.447-1.1 1.074-1.1 1.66 0 1.131 1.033 0.924 1.416-0.283 0.135-0.427 0.694-1.224 1.243-1.772 0.563-0.563 0.917-1.297 0.815-1.687-0.1-0.38-0.202-0.453-0.228-0.162m253.82 29.371c-0.536 0.715-1.568 2.38-2.294 3.7-0.725 1.32-1.841 3.175-2.48 4.122-1.682 2.495-1.061 3.317 3.849 5.1 3.586 1.301 3.555 1.354 3.506-5.949-0.055-8.044-0.624-9.583-2.581-6.973m1.734 6.992v5.795l-1.1-0.269c-1.903-0.464-5.3-2.154-5.3-2.636 0-0.254 0.604-1.479 1.343-2.722 0.738-1.243 1.942-3.289 2.676-4.546 2.005-3.438 2.381-2.746 2.381 4.378m-245.54 2.107c-0.292 0.66-0.771 2.505-1.063 4.1-0.292 1.596-0.994 4.431-1.558 6.301-1.182 3.912-1.339 5.688-0.475 5.357 0.912-0.35 2.189-4.62 2.217-7.408 8e-3 -0.798 0.314-2.148 0.681-3s0.79-2.359 0.94-3.349 0.345-2.047 0.433-2.35c0.322-1.107-0.66-0.816-1.175 0.349m-70.276 3.218c-0.13 0.211-0.125 0.563 0.011 0.783 0.37 0.598 1.4 0.482 1.4-0.157 0-0.678-1.082-1.158-1.411-0.626m63.174 24.683c-0.782 1.811-1.169 4.596-0.777 5.581 0.227 0.568 0.444 0.325 1.033-1.154 1.594-3.999 1.354-8.154-0.256-4.427m-4.507 28.5c-0.221 0.77-0.604 2.671-0.851 4.225-0.313 1.961-0.75 3.173-1.428 3.962l-0.977 1.137v-0.97c0-0.533 0.36-2.269 0.8-3.857s0.8-3.531 0.8-4.318 0.405-2.364 0.9-3.505l0.9-2.074 0.128 2c0.071 1.1-0.052 2.63-0.272 3.4m-2.98-0.5c-0.101 0.385-0.183 0.07-0.183-0.7s0.082-1.085 0.183-0.7c0.1 0.385 0.1 1.015 0 1.4m200.5 1.766c-0.271 0.514-0.609 1.024-0.752 1.134s-0.695 0.83-1.227 1.6c-2.263 3.274-2.881 2.755-0.74-0.622 1.821-2.872 4.018-4.579 2.719-2.112m-201.64 3.178c-0.771 0.479-0.919-0.345-0.278-1.554l0.546-1.031 0.132 1.127c0.074 0.635-0.1 1.272-0.4 1.458m196.62 3.738c-0.203 0.528-1.352 1.208-1.352 0.8 0-0.106 0.216-0.539 0.48-0.962 0.53-0.847 1.211-0.721 0.872 0.162m-2.952 3.556c0 0.076-0.45 0.661-1 1.3-0.549 0.639-0.999 1.278-1 1.419 0 0.142-0.274 0.363-0.609 0.491-0.509 0.195-0.534 0.093-0.153-0.619 0.783-1.463 2.762-3.32 2.762-2.591m24.066 17.437c-1.174 0.434-3.424 1.431-5 2.215-2.751 1.367-3.896 2.154-7.035 4.83-0.787 0.671-2.241 1.825-3.231 2.565-6.381 4.769-12.016 11.518-16.34 19.569-4.921 9.162-7.709 15.507-9.949 22.646-0.345 1.1-1.071 3.35-1.612 5s-1.134 3.72-1.318 4.6c-0.183 0.88-0.711 3.22-1.172 5.2s-1.009 5.13-1.218 7-0.554 4.21-0.767 5.2c-0.649 3.014-0.922 10.438-0.46 12.471 0.235 1.029 0.7 3.549 1.035 5.6 1.148 7.033 1.763 10.367 2.147 11.647 0.211 0.705 0.585 2.182 0.829 3.282 0.245 1.1 0.784 2.9 1.198 4s1.293 3.727 1.954 5.837c2.379 7.598 9.927 22.138 13.894 26.763 0.283 0.33 1.132 1.768 1.888 3.196 1.261 2.383 1.55 2.663 3.524 3.417 1.539 0.587 2.438 1.242 3.159 2.301 2.241 3.29 4.496 4.075 6.731 2.34 0.813-0.63 2.287-1.453 3.277-1.83 2.293-0.872 5.124-2.674 6.455-4.108 1.969-2.121 5.868-8.322 6.339-10.08 0.259-0.97 0.71-2.14 1.002-2.6 3.54-5.572 1.215-9.479-5.962-10.02-2.939-0.221-3.853-0.459-5.2-1.354-0.899-0.598-2.145-1.345-2.769-1.66-1.894-0.959-5.586-5.255-7.195-8.373-1.523-2.953-1.983-4.177-3.245-8.629-0.375-1.32-0.938-3.244-1.253-4.275s-0.572-2.3-0.572-2.818c0-0.519-0.372-2.697-0.826-4.841-0.944-4.449-0.936-20.381 0.011-24.666 0.267-1.21 0.634-3.55 0.815-5.2 0.182-1.65 0.538-3.9 0.793-5s0.45-3.091 0.432-4.424c-0.051-3.943 3.408-15.068 6.445-20.731 2.882-5.371 8.453-12.84 10.325-13.842 1.028-0.551 1.095 0.838 0.205 4.277-0.642 2.481-0.951 3.479-3.196 10.32-2.364 7.201-3.799 12.569-4.431 16.573-0.396 2.507-1.008 4.584-1.825 6.192-1.557 3.064-1.483 5.995 0.242 9.556 1.011 2.089 1.078 2.475 0.667 3.847-1.099 3.668-8e-3 6.86 3.737 10.937 9.031 9.83 19.873 10.961 30.204 3.152 0.77-0.581 1.94-1.434 2.6-1.895 0.661-0.461 2.487-2.081 4.058-3.6s4.475-4.112 6.452-5.762 4.012-3.603 4.522-4.34c1.346-1.944 5.148-5.671 7.199-7.057 3.113-2.103 4.771-4.472 4.771-6.816 0-3.756-8.445-7.201-13.081-5.337-0.616 0.247-1.479 0.589-1.919 0.759-1.079 0.417-3.471 1.442-5.3 2.27-1.367 0.619-3.473 1.903-9.1 5.544-1.1 0.712-2.81 1.698-3.8 2.191-0.99 0.492-2.52 1.374-3.4 1.958-1.683 1.118-3.577 2.028-4.219 2.028-1.205 0 0.594-8.06 3.617-16.2 0.925-2.492 1.325-3.953 2.191-8 0.376-1.76 0.876-3.92 1.111-4.8 0.234-0.88 0.555-2.32 0.714-3.2 0.25-1.388 2.156-7.625 4.097-13.4 0.333-0.99 0.908-2.7 1.278-3.8 1.655-4.92 2.749-7.771 3.838-10.007 1.494-3.064 1.484-3.185-0.405-5.018-2.775-2.693-3.53-2.913-9.191-2.668-5.52 0.238-7.446-0.21-10.318-2.401-1.89-1.441-5.39-1.661-8.447-0.531m7.64 1.039c3.535 2.402 4.85 2.727 11.129 2.758l5.834 0.028 1.866 1.527c2.246 1.838 2.335 2.608 0.665 5.737-0.66 1.237-1.2 2.497-1.2 2.801s-0.619 2.124-1.376 4.044c-1.358 3.448-5.98 17.753-6.361 19.691-0.108 0.55-0.581 2.71-1.05 4.8-0.47 2.09-1.016 4.543-1.213 5.452-0.197 0.908-0.729 2.708-1.184 4-3.764 10.703-5.547 18.449-4.408 19.153 0.638 0.394 3.19-0.569 5.492-2.074 1.155-0.756 3.045-1.881 4.2-2.5 1.155-0.62 4.402-2.579 7.216-4.355 10.077-6.358 15.503-7.685 20.709-5.064 4.919 2.478 4.635 5.82-0.825 9.702-2.8 1.99-5.922 5.024-7.385 7.178-0.501 0.737-2.329 2.516-4.063 3.955-1.733 1.439-5.079 4.357-7.433 6.484-11.154 10.08-18.792 12.34-27.356 8.097-7.385-3.66-12.352-10.62-11.267-15.79 0.415-1.979 0.362-2.319-0.828-5.277-1.602-3.979-1.589-4.78 0.136-8.796 0.835-1.946 1.558-4.461 1.785-6.217 0.444-3.431 1.584-7.949 3.215-12.748 3.053-8.978 5.939-19.79 5.422-20.308-1.464-1.464-9.758 8.215-13.61 15.884-2.938 5.847-6.217 16.446-6.214 20.086 1e-3 1.396-0.263 3.978-0.586 5.738-3.532 19.224-3.298 29.619 1.021 45.4 3.617 13.213 10.305 20.761 18.976 21.415 7 0.527 8.294 2.743 5.375 9.199-0.401 0.888-0.857 2.148-1.013 2.8-0.325 1.361-4.488 7.756-6.301 9.68-1.618 1.717-10.634 6.241-11.694 5.868-0.429-0.151-1.782-1.308-3.008-2.571-1.406-1.449-2.699-2.399-3.506-2.577-0.703-0.154-1.548-0.67-1.877-1.147-0.33-0.477-1.433-2.127-2.452-3.667-1.02-1.54-2.517-3.79-3.326-5-4.568-6.825-10.251-18.652-12.012-25-0.489-1.76-1.037-3.483-1.219-3.828-0.555-1.053-2.002-6.741-2.79-10.972-0.411-2.2-0.925-4.81-1.143-5.8-1.309-5.932-1.703-10.617-1.281-15.2 0.674-7.31 1.204-11.603 1.626-13.17 0.215-0.799 0.673-2.937 1.017-4.751 1.896-9.995 7.187-23.819 13.801-36.061 9.501-17.583 31.099-33.631 38.496-28.604m22.505 21.138c-1.142 1.143-1.325 2.553-0.378 2.916 0.872 0.335 2.177-1.067 2.282-2.45 0.114-1.512-0.667-1.703-1.904-0.466m-107.92 54.487c-0.131 0.132-0.14 0.496-0.02 0.81 0.233 0.606 1.326 0.031 1.326-0.698 0-0.396-0.941-0.477-1.306-0.112m-27.538 20.086c-0.966 0.839-2.137 1.784-2.602 2.1-1.493 1.015-9.754 9.043-9.754 9.479 0 1.127 2.229-0.522 7.849-5.807 3.383-3.182 6.151-6.02 6.151-6.308 0-0.287 0.225-0.613 0.5-0.724 0.3-0.121 0.322-0.214 0.056-0.233-0.244-0.018-1.234 0.654-2.2 1.493m-19.623 17.237c-0.073 0.199-1.573 1.245-3.333 2.325-5.01 3.075-6.168 3.876-6.379 4.413-0.473 1.207 2.713-0.133 5.11-2.149 0.622-0.523 1.26-0.951 1.418-0.951s1.261-0.9 2.451-2c1.322-1.222 1.912-2 1.515-2-0.356 0-0.708 0.163-0.782 0.362" fill="#4a2424"/>
</g>
</svg>
